<?xml version="1.0" encoding="UTF-8"?>
<svg width="300px" height="300px" viewBox="0 0 300 300" version="1.1" xmlns="http://www.w3.org/2000/svg" xmlns:xlink="http://www.w3.org/1999/xlink">
    <!-- Generator: Sketch 51.2 (57519) - http://www.bohemiancoding.com/sketch -->
    <title>call</title>
    <desc>Created with Sketch.</desc>
    <defs></defs>
    <g id="Page-1" stroke="none" stroke-width="1" fill="none" fill-rule="evenodd">
        <g id="call" fill-rule="nonzero" stroke="#3F424C" stroke-width="10">
            <path d="M296.431848,237.234129 C295.736468,233.904103 293.616831,231.126712 289.937065,228.84313 L229.444217,193.049481 L229.116229,193.049481 L228.402792,192.620503 C226.80898,191.66217 224.479386,191.143599 221.387565,191.143599 C217.083387,191.143599 213.378699,192.545025 210.136695,195.401521 L192.117972,213.768448 C191.313852,214.573958 190.240116,215.153016 188.882855,215.606958 C187.645588,216.019869 186.703273,216.237716 185.871503,216.237716 L185.573673,216.237716 L185.281657,216.179158 L181.321037,215.384937 C178.34882,214.7911 174.322595,213.166977 169.12758,210.509614 C164.000312,207.886905 157.691016,203.835646 150.174215,198.350602 C142.622008,192.837701 134.045537,185.159218 124.475395,175.357394 C114.638364,165.717563 107.026057,157.179439 101.630446,149.720614 C96.2574274,142.293021 92.2639076,135.968018 89.6642595,130.759002 C86.5805693,124.801596 84.5788597,119.454468 83.6735316,114.693273 L83.6207254,114.41556 L83.6207254,114.132872 C83.6207254,113.131935 83.8393668,112.036836 84.2498319,110.803311 C84.7010601,109.447284 85.2793814,108.371401 86.0830646,107.566327 L101.620888,92.0016212 C103.952079,89.6663972 105.471125,86.8020701 106.198851,83.3393922 C106.897255,80.0162335 106.474544,77.0521393 104.894323,74.2357181 L71.0236652,9.86525717 C69.7483237,7.88196939 68.2187938,6.22458816 66.4270243,4.87843609 C64.8382053,3.68476021 63.0406228,3.09757785 60.9357513,3.09757785 C57.9496054,3.09757785 55.3229987,4.24870644 52.9117541,6.66412276 L10.7376608,48.9111816 L10.623318,49.019852 C8.8129096,50.6520386 7.24421178,52.8242843 5.92637069,55.5588209 C4.60594407,58.2987224 3.75573914,60.9637954 3.36555597,63.5577766 C3.34376165,64.3388027 3.24051926,66.3615135 3.0482467,69.8284073 C2.85063734,73.3915298 3.2577067,78.4377285 4.28427577,84.9163029 C5.31472728,91.4193789 7.28648503,99.2160991 10.2023206,108.291691 C13.1058011,117.328828 17.4788208,127.4456 23.3237342,138.631902 C29.1690786,149.820008 36.9124168,162.031753 46.5543521,175.260373 C56.177521,188.462219 68.3332629,202.318418 83.0485938,216.848973 C101.513036,235.556062 118.90044,250.245657 135.195475,260.917333 C151.544037,271.624579 166.128459,279.636511 178.938713,284.956421 C191.734834,290.270711 202.505768,293.590862 211.219251,294.926321 C220.062739,296.281706 226.439582,296.95692 230.267876,296.95692 C231.859258,296.95692 233.141861,296.907127 234.089724,296.812503 C235.049902,296.716366 235.641755,296.663103 236.023831,296.64467 C238.616731,296.255857 241.281753,295.403688 244.024051,294.077065 C246.749594,292.760394 248.917699,291.18876 250.548704,289.373397 L250.665211,289.250852 L292.830945,247.331339 C295.748651,244.407743 296.911823,241.126652 296.431848,237.234129 Z" id="Shape"></path>
        </g>
    </g>
</svg>