<?xml version="1.0" encoding="UTF-8"?>
<svg width="300px" height="300px" viewBox="0 0 300 300" version="1.1" xmlns="http://www.w3.org/2000/svg" xmlns:xlink="http://www.w3.org/1999/xlink">
    <!-- Generator: Sketch 51.2 (57519) - http://www.bohemiancoding.com/sketch -->
    <title>callHover</title>
    <desc>Created with Sketch.</desc>
    <defs></defs>
    <g id="Page-1" stroke="none" stroke-width="1" fill="none" fill-rule="evenodd">
        <g id="callHover" fill="#3F424C" fill-rule="nonzero">
            <path d="M299.393782,236.744637 C300.028497,241.615744 298.546632,245.851038 294.954404,249.450519 L252.780311,291.378374 C250.87772,293.496021 248.394301,295.297578 245.329016,296.778374 C242.263731,298.261246 239.251813,299.214187 236.293264,299.637197 C236.081865,299.637197 235.446114,299.691696 234.388601,299.797578 C233.333161,299.902941 231.959067,299.95692 230.267876,299.95692 C226.250259,299.95692 219.749223,299.268685 210.764767,297.891696 C201.780311,296.514706 190.788083,293.125952 177.788083,287.72699 C164.784974,282.32699 150.040415,274.225952 133.551813,263.42699 C117.063212,252.628547 99.5165803,237.803979 80.9134715,218.956401 C66.115544,204.344637 53.8544041,190.368166 44.1300518,177.027509 C34.4056995,163.685813 26.5839378,151.350519 20.6647668,140.021107 C14.7450777,128.691696 10.3056995,118.421107 7.34611399,109.209343 C4.3865285,99.9975779 2.37823834,92.0564014 1.32124352,85.3858131 C0.264248705,78.7152249 -0.158549223,73.4740484 0.0528497409,69.6622837 C0.264248705,65.850519 0.369948187,63.732872 0.369948187,63.3093426 C0.792746114,60.3446367 1.74404145,57.3269896 3.2238342,54.2564014 C4.70362694,51.1858131 6.50051813,48.6975779 8.61450777,46.7916955 L50.788601,4.54463668 C53.7481865,1.5799308 57.1305699,0.0975778547 60.9357513,0.0975778547 C63.6839378,0.0975778547 66.1150259,0.891695502 68.2290155,2.4799308 C70.3430052,4.06816609 72.1398964,6.02698962 73.6196891,8.35640138 L107.549223,72.8387543 C109.451813,76.2269896 109.980311,79.932872 109.134715,83.9564014 C108.289119,87.9799308 106.492228,91.3681661 103.744041,94.1211073 L88.2062176,109.685813 C87.7834197,110.109343 87.4134715,110.797578 87.0963731,111.750519 C86.7792746,112.70346 86.6207254,113.497578 86.6207254,114.132872 C87.4663212,118.579931 89.3689119,123.662284 92.3284974,129.379931 C94.865285,134.462284 98.7761658,140.656401 104.06114,147.962284 C109.346114,155.268166 116.850777,163.685294 126.57513,173.214706 C136.088083,182.95692 144.544041,190.526471 151.943005,195.927509 C159.340415,201.325433 165.525907,205.297578 170.493782,207.838754 C175.461658,210.379931 179.266839,211.915225 181.908808,212.44308 L185.871503,213.237716 C186.294301,213.237716 186.982902,213.078374 187.933161,212.761246 C188.884456,212.44308 189.571503,212.07301 189.994819,211.648962 L208.068912,193.225433 C211.876166,189.837716 216.313472,188.143599 221.387565,188.143599 C224.982383,188.143599 227.834715,188.778374 229.948705,190.049481 L291.464767,226.261246 C295.905699,229.016263 298.547668,232.509343 299.393782,236.744637 Z" id="Shape"></path>
        </g>
    </g>
</svg>