<?xml version="1.0" encoding="UTF-8"?>
<svg width="360px" height="300px" viewBox="0 0 360 300" version="1.1" xmlns="http://www.w3.org/2000/svg" xmlns:xlink="http://www.w3.org/1999/xlink">
    <!-- Generator: Sketch 51.2 (57519) - http://www.bohemiancoding.com/sketch -->
    <title>twitterHover</title>
    <desc>Created with Sketch.</desc>
    <defs></defs>
    <g id="Page-1" stroke="none" stroke-width="1" fill="none" fill-rule="evenodd">
        <g id="twitterHover" fill="#76A9EA" fill-rule="nonzero">
            <path d="M354.063158,35.245614 C346.069298,38.7903509 337.771053,41.5868421 329.25614,43.6114035 C338.638596,34.695614 345.692982,23.5438596 349.672807,11.0964912 C350.808772,7.54298246 346.949123,4.47017544 343.740351,6.37280702 C331.894737,13.3991228 319.135088,18.6701754 305.814912,22.0412281 C305.042105,22.2368421 304.244737,22.3359649 303.444737,22.3359649 C301.018421,22.3359649 298.659649,21.4350877 296.804386,19.8 C282.632456,7.30964912 264.405263,0.430701754 245.481579,0.430701754 C237.292982,0.430701754 229.025439,1.70701754 220.907895,4.2245614 C195.757018,12.0254386 176.350877,32.7719298 170.262281,58.3684211 C167.97807,67.9692982 167.359649,77.5789474 168.422807,86.9298246 C168.544737,88.004386 168.036842,88.754386 167.723684,89.1061404 C167.173684,89.722807 166.39386,90.0763158 165.584211,90.0763158 C165.49386,90.0763158 165.400877,90.0719298 165.308772,90.0631579 C110.254386,84.9482456 60.6087719,58.4245614 25.5166667,15.3789474 C23.727193,13.1833333 20.295614,13.4526316 18.8692982,15.8991228 C11.9973684,27.6885965 8.36578947,41.172807 8.36578947,54.8938596 C8.36578947,75.9219298 16.8140351,95.7385965 31.4885965,110.185088 C25.3175439,108.72193 19.3447368,106.417544 13.7964912,103.335965 C11.1122807,101.844737 7.80964912,103.761404 7.77192982,106.831579 C7.3877193,138.070175 25.677193,165.866667 53.0754386,178.383333 C52.5236842,178.396491 51.9719298,178.402632 51.4192982,178.402632 C47.0763158,178.402632 42.6789474,177.983333 38.3508772,177.15614 C35.3280702,176.578947 32.7885965,179.446491 33.727193,182.377193 C42.6201754,210.141228 66.5254386,230.60614 95.1324561,235.252632 C71.3903509,251.190351 43.7421053,259.597368 14.9657895,259.597368 L5.99473684,259.592105 C3.23070175,259.592105 0.892982456,261.39386 0.188596491,264.071053 C-0.505263158,266.707895 0.772807018,269.489474 3.12982456,270.860526 C35.5561404,289.731579 72.5429825,299.705263 110.107895,299.705263 C142.989474,299.705263 173.747368,293.179825 201.52807,280.311404 C226.995614,268.514035 249.500877,251.65 268.418421,230.187719 C286.041228,210.194737 299.82193,187.114912 309.376316,161.590351 C318.484211,137.259649 323.298246,111.298246 323.298246,86.5122807 L323.298246,85.3315789 C323.297368,81.3517544 325.097368,77.6070175 328.237719,75.0578947 C340.154386,65.3824561 350.531579,53.9929825 359.079825,41.2061404 C361.336842,37.8298246 357.777193,33.5982456 354.063158,35.245614 Z" id="Shape"></path>
        </g>
    </g>
</svg>