<?xml version="1.0" encoding="UTF-8"?>
<svg width="200px" height="200px" viewBox="0 0 200 200" version="1.1" xmlns="http://www.w3.org/2000/svg" xmlns:xlink="http://www.w3.org/1999/xlink">
    <!-- Generator: Sketch 51.2 (57519) - http://www.bohemiancoding.com/sketch -->
    <title>aath</title>
    <desc>Created with Sketch.</desc>
    <defs></defs>
    <g id="aath" stroke="none" stroke-width="1" fill="none" fill-rule="evenodd">
        <rect id="Rectangle-5-Copy" fill-rule="nonzero" x="0" y="0" width="200" height="200"></rect>
        <path d="M104.560361,118.08853 C105.241046,112.626259 106.101493,107.159445 107.25111,101.775498 C108.126082,97.6777877 109.176904,93.5596641 110.564353,89.603335 C111.721885,86.3032088 113.222777,82.777049 115.279692,79.9303226 C118.172096,75.9273208 121.213787,72.0348673 124.372164,68.2380004 C126.656752,65.4914641 129.002626,62.8085309 131.371636,60.1350474 C132.08674,59.3281957 132.805421,58.5226464 133.507788,57.7048005 C134.904941,56.0774377 137.067566,55 139.225794,55 C140.736692,55 142.20726,55.5825142 143.32249,56.5991957 C145.574237,58.6515186 146.137599,62.0856657 146.176292,64.978247 C146.266385,71.7287241 146.133899,78.5044606 145.175748,85.1976948 C144.304991,91.28049 142.765133,97.0868537 140.604479,102.838004 C139.513933,105.740368 137.496409,108.720449 135.682087,111.223749 C133.328209,114.470993 130.76476,117.591849 128.211561,120.684387 C127.81289,121.167135 127.413703,121.64955 127.014668,122.132056 C124.907082,124.679514 122.780997,127.229607 120.774299,129.857145 C119.483372,131.547445 117.983996,133.548764 116.99919,135.488025 C118.902544,137.582871 120.37675,139.995339 121.470541,142.601858 C167.156847,142.601858 190,142.601858 190,142.601858 C190,142.601858 190,143.401238 190,145 L119.743067,144.999576 L119.563154,144.518615 C118.457628,141.564399 116.848085,138.848937 114.63027,136.590661 C114.278602,136.232545 114.178381,135.69313 114.377731,135.232885 C115.356442,132.973216 117.105082,130.593791 118.590599,128.633329 C120.676383,125.880584 122.899959,123.215369 125.102035,120.554485 C125.488061,120.087971 125.874027,119.621517 126.259628,119.15464 C128.771677,116.113045 131.295826,113.043859 133.615135,109.852434 C135.308525,107.522286 137.265946,104.670744 138.281652,101.966761 C140.369043,96.4099948 141.859139,90.8003163 142.706577,84.9241709 C143.656935,78.3333681 143.784599,71.6593663 143.695719,65.0114721 C143.658572,62.2155373 142.908081,57.4776463 139.225794,57.4776463 C137.785671,57.4776463 136.32135,58.2348572 135.391886,59.3172317 C134.681028,60.1450119 133.953401,60.9602834 133.229534,61.7769178 C130.878657,64.4290185 128.551433,67.0910838 126.284888,69.8163282 C123.161353,73.5721862 120.152716,77.422177 117.291605,81.3814137 C109.928881,91.5703387 106.804133,117.153139 105.881886,129.784092 C105.855231,130.148387 105.669556,130.484242 105.372501,130.697737 C105.080571,130.907476 104.706644,130.983891 104.356461,130.900782 C103.02593,130.584947 101.430185,130.318874 100.051954,130.318874 C98.5699235,130.318874 96.9736926,130.584947 95.6425551,130.900782 C95.2920993,130.983891 94.9182637,130.907415 94.6266063,130.697071 C94.3302185,130.483273 94.1447259,130.147933 94.118071,129.784092 C93.1961877,117.153593 90.0721977,91.5699147 82.7097157,81.3814137 C79.8485144,77.4220255 76.8393012,73.5720045 73.7152506,69.8163282 C71.4484323,67.0912655 69.1207838,64.4292911 66.770089,61.7767663 C66.0466467,60.9602834 65.3200506,60.144921 64.6093444,59.3172923 C63.6796375,58.2344332 62.2153165,57.4776463 60.7743147,57.4776463 C57.0919668,57.4776463 56.3418999,62.2153859 56.3045103,65.0114721 C56.2155394,71.6595178 56.3433555,78.3335195 57.2938951,84.9244132 C58.1412721,90.8004981 59.6315202,96.4100856 61.7189107,101.966761 C62.7345259,104.67029 64.6913408,107.521317 66.3843966,109.851222 C68.7029175,113.041981 71.2263082,116.110713 73.7375995,119.151641 C74.1240499,119.619549 74.5108643,120.086941 74.8975877,120.554485 C77.099937,123.215884 79.3239983,125.881463 81.4107217,128.634268 C82.8961786,130.594124 84.6457586,132.97364 85.6242267,135.232885 C85.82382,135.693554 85.7223858,136.234272 85.3705655,136.592448 C83.153509,138.849876 81.5441175,141.565429 80.4388036,144.518797 L80.2587087,144.999909 C33.4195696,144.99997 10,145 10,145 C10,145 10,142.601858 10,142.601858 C10,142.601858 32.8435125,142.601858 78.5305376,142.601858 C79.6238128,139.995854 81.0980195,137.583204 83.0016459,135.489418 C82.0163852,133.549976 80.5171914,131.548656 79.2262637,129.858266 C77.219323,127.230304 75.092875,124.679847 72.9849247,122.132056 C72.585071,121.648793 72.1851869,121.165439 71.7858183,120.681722 C69.2327707,117.58979 66.6694129,114.469539 64.3161406,111.222658 C62.5019096,108.719752 60.4846588,105.740035 59.3946282,102.838004 C57.2345811,97.0872777 55.6951473,91.2812774 54.8245724,85.1992395 C53.8662091,78.5054904 53.7336624,71.7293298 53.8236644,64.978247 C53.8624489,62.0853931 54.4262348,58.6514277 56.678164,56.599014 C57.7931209,55.5829382 59.2637797,55 60.7743147,55 C62.9330882,55 65.0944089,56.0773771 66.4920169,57.7047097 C67.1943536,58.5226464 67.913308,59.3281957 68.6284112,60.1350474 C70.9975734,62.8082886 73.3437196,65.4908583 75.6283988,68.2373341 C78.7872918,72.0343524 81.829437,75.9269573 84.7220844,79.9303226 C86.7789689,82.777049 88.2799821,86.3034813 89.4371502,89.6037893 C90.8245086,93.5604213 91.8749965,97.6789083 92.7498774,101.776861 C93.8990703,107.160566 94.7590621,112.627198 95.4396868,118.089044 C95.8579472,121.445565 96.2122845,124.818593 96.4843221,128.191499 C97.6191413,127.985455 98.8339252,127.840107 99.9487002,127.840107 C101.166395,127.840107 102.381058,127.985455 103.515786,128.191499 C103.78752,124.81832 104.141918,121.444869 104.560361,118.08853 Z" id="AATH" fill="#CCCCCC"></path>
    </g>
</svg>