<?xml version="1.0" encoding="UTF-8"?>
<svg width="200px" height="200px" viewBox="0 0 200 200" version="1.1" xmlns="http://www.w3.org/2000/svg" xmlns:xlink="http://www.w3.org/1999/xlink">
    <!-- Generator: Sketch 51.2 (57519) - http://www.bohemiancoding.com/sketch -->
    <title>lnb</title>
    <desc>Created with Sketch.</desc>
    <defs>
        <path d="M14.0287319,73.8226561 C11.1650432,74.3439444 8.24564067,73.2636337 6.40569281,71.0009907 C3.54339694,67.5378472 4.02253552,62.4018293 7.47539755,59.5298519 C9.27077438,58.0372622 11.6205034,57.3901938 13.9228757,57.7549559 L13.9228757,58.6158503 C9.96998242,60.8253862 8.55067366,65.832829 10.754154,69.7990926 C11.5146472,71.1714925 12.6512085,72.2937299 14.0287319,73.0372297 L14.0287319,73.8226561 Z M26.0712672,53.9983256 L26.1019098,54.044445 L20.4483532,54.044445 C20.2338551,54.0220841 20.0304997,53.9382307 19.8619655,53.8026678 L20.0123928,53.8026678 C19.9218579,53.1542019 20.1781413,52.8970516 20.8104928,52.6706475 C21.265953,52.4512312 21.6058071,52.0445425 21.7423059,51.5540004 C21.8774118,50.8132957 21.9122329,50.057218 21.8467692,49.3067305 C21.4414514,38.444926 21.0347408,27.5970971 20.5695306,16.7352926 C20.3578183,11.8634128 20.0722851,6.99013532 19.8020732,2.11685789 C19.7129312,0.396466579 19.1557933,-0.0549439768 17.5317363,0.00515092698 L12.915849,0.00515092698 C11.291792,0.00515092698 10.736047,0.396466579 10.6455121,2.11685789 C10.3753002,6.99013532 10.0744458,11.8634128 9.87944751,16.7352926 C9.42816583,27.5873142 9.00195535,38.444926 8.60081607,49.3067305 C8.53674521,50.057218 8.57156633,50.8132957 8.70667227,51.5540004 C8.84177821,52.0445425 9.18163231,52.4512312 9.63848538,52.6706475 C10.1050884,52.8369567 10.3753002,53.0172414 10.4351926,53.3806059 C10.4393711,53.4407008 10.4393711,53.5007957 10.4351926,53.5608906 C10.3293364,54.3602926 9.72902028,54.0290719 9.33763092,54.044445 L3.21747128,54.044445 C1.61291417,53.9018943 0.197783949,55.0912143 0.0557137883,56.7011987 C0.0445710307,56.8213885 0.0417853412,56.9415784 0.0459638754,57.0617682 C-0.0153212918,57.7493657 -0.0153212918,58.4411558 0.0459638754,59.1273558 C0.667172615,66.4701145 1.29395273,73.8114756 1.92491139,81.1542343 C2.09065991,83.1303784 2.21044455,85.1065224 2.51129901,87.0686909 C2.67983322,88.5431124 3.86375122,89.6933009 5.33738092,89.8134907 C6.17587343,89.9238976 7.01993733,89.9728121 7.86400122,89.9658243 L23.3956126,89.9658243 C25.4361301,90.2425404 27.3150776,88.808648 27.5922537,86.7598311 C27.6061821,86.6578095 27.6145392,86.5529928 27.6201106,86.4495737 C27.7649664,85.5146088 27.8596798,84.5726561 27.9056437,83.6293058 C28.3583183,77.9719996 28.7942786,72.3300664 29.2441675,66.6713625 C29.4698083,63.8496972 29.8013054,61.0294294 29.9809823,58.207764 C30.1620521,55.3874962 29.0644905,54.044445 26.0712672,53.9983256 Z" id="path-1"></path>
    </defs>
    <g id="lnb" stroke="none" stroke-width="1" fill="none" fill-rule="evenodd">
        <rect id="Rectangle-5" fill-rule="nonzero" x="0" y="0" width="200" height="200"></rect>
        <g id="LNB" transform="translate(85.000000, 55.000000)">
            <g id="LunulaLogoBottle">
                <g>
                    <mask id="mask-2" fill="white">
                        <use xlink:href="#path-1"></use>
                    </mask>
                    <use id="Mask" fill="#CCCCCC" xlink:href="#path-1"></use>
                </g>
            </g>
        </g>
    </g>
</svg>