<?xml version="1.0" encoding="UTF-8"?>
<svg width="200px" height="200px" viewBox="0 0 200 200" version="1.1" xmlns="http://www.w3.org/2000/svg" xmlns:xlink="http://www.w3.org/1999/xlink">
    <!-- Generator: Sketch 51.2 (57519) - http://www.bohemiancoding.com/sketch -->
    <title>thi</title>
    <desc>Created with Sketch.</desc>
    <defs></defs>
    <g id="thi" stroke="none" stroke-width="1" fill="none" fill-rule="evenodd">
        <rect id="Rectangle-5-Copy-5" fill-rule="nonzero" x="0" y="0" width="200" height="200"></rect>
        <g transform="translate(32.500000, 55.000000)" fill="#CCCCCC">
            <path d="M102.387145,0 C95.1119548,0 89.1970181,3.3664557 83.9553726,7.95987342 C74.4917017,16.2535443 67.3885371,26.4953165 60.7023346,36.9740506 C56.896132,42.9379747 53.2300561,49.0374684 50.3090434,55.5186076 C49.7610688,56.7353165 49.136765,57.9041772 48.1547396,58.8725316 C40.2404358,66.6672152 32.7533472,74.9289873 23.2885371,81.0068354 C21.2857523,82.293038 19.2943599,83.5746835 16.9475245,84.1670886 C16.2560055,84.3402532 15.6248662,84.4268354 15.0586637,84.4268354 C12.715246,84.4268354 11.4768915,82.9446835 11.5896764,80.0487342 C11.7241067,76.6002532 13.0558789,73.4331646 14.6257523,70.4346835 C17.2015751,65.5211392 20.3549928,60.9459494 23.5346131,56.3981013 C24.7023346,54.7291139 26.1765118,53.6468354 28.2749928,53.2811392 C29.3732207,53.0908861 30.4509422,52.9917722 31.5092966,52.9917722 C34.2389169,52.9917722 36.8386637,53.6525316 39.3165118,55.1164557 C40.1208156,55.591519 40.7884105,56.3627848 41.8046131,56.3627848 C41.8832207,56.3627848 41.9641067,56.3582278 42.046132,56.3479747 C42.5679042,54.5297468 42.6317017,54.3622785 42.263727,53.786962 C39.6742333,49.7494937 35.3781574,48.6216456 30.7573979,47.6122785 C32.3830941,45.535443 33.6465118,43.6955696 35.2460055,42.1097468 C38.9804358,38.4094937 42.7000561,34.6955696 46.4310688,30.993038 C47.5247396,29.9073418 48.5557523,28.7886076 49.0228409,27.298481 C47.5042333,25.9518987 47.5030941,25.9553165 46.1143599,25.8835443 C45.9036004,25.8721519 45.6928409,25.8675949 45.4832207,25.8675949 C42.8823346,25.8675949 40.4079042,26.6718987 37.8844865,27.1674684 C34.8814485,27.7564557 32.686132,29.3867089 31.0251194,31.9841772 C28.1508156,36.483038 25.0589169,40.8451899 22.1230941,45.3075949 C21.2834738,46.5846835 20.3641067,47.3206329 18.7304358,47.5792405 C16.523727,47.9278481 14.2987903,48.415443 12.3449928,49.7643038 C10.5632207,50.9958228 9.62334724,52.4848101 9.71676496,54.6448101 C9.80448648,56.6760759 11.4256257,57.1534177 13.0000561,57.5988608 C12.4646131,58.8087342 11.5782839,59.3908861 10.8753726,60.12 C7.94410673,63.1583544 4.4079042,65.5553165 1.60081559,68.7246835 C1.12461306,69.2635443 0.607397869,69.7693671 0.166511793,70.3344304 C-0.11146289,70.6921519 -0.0146274474,71.1205063 0.259929515,71.4656962 C0.467271287,71.7277215 0.725878882,71.8359494 1.02549913,71.8359494 C1.13372698,71.8359494 1.24537255,71.8222785 1.36271432,71.7960759 C1.99157508,71.6593671 2.25018268,70.8436709 3.05562572,70.8436709 C3.12967635,70.8436709 3.2071447,70.8493671 3.2914485,70.8641772 C3.02030926,71.9635443 2.88587888,73.0913924 2.46777762,74.1041772 C1.48917002,76.4726582 1.39347382,78.9573418 1.69537255,81.3850633 C2.25701812,85.9078481 5.032208,89.3791139 10.1713219,89.4235443 L10.3330941,89.4235443 C14.7339801,89.4235443 18.5082839,87.8491139 22.1527143,85.8007595 C26.7541067,83.216962 30.677651,79.7058228 34.486132,76.1046835 C37.8548662,72.9170886 41.0811953,69.5813924 44.3895498,66.3311392 C44.8327143,65.8948101 45.1847396,65.2203797 46.1211953,65.2203797 L46.1679042,65.2203797 C43.9270181,72.5240506 40.5058789,79.1977215 38.2911953,86.3225316 C38.9963852,86.494557 39.6525877,86.58 40.2609422,86.58 C42.3366384,86.58 43.8598029,85.5786076 44.8748662,83.5473418 C47.3048662,78.6827848 49.5241067,73.7156962 52.9042333,69.3740506 C57.2515751,63.7906329 61.4348662,58.0750633 67.3543599,53.9396203 C67.3543599,53.9396203 70.1215751,52.0872152 72.6039801,52.0872152 C73.2305624,52.0872152 73.8377776,52.2034177 74.3789169,52.4996203 C76.1196764,53.4474684 74.5498029,55.6781013 73.697651,57.064557 C71.5957523,60.48 69.0848662,63.625443 66.3814485,66.5681013 C64.0300561,69.1268354 62.542208,72.1481013 61.0179042,75.1488608 C60.2466384,76.6651899 59.9549928,78.4446835 59.9538536,80.2287342 C59.9527143,84.4781013 61.9999295,86.5458228 66.3210688,86.9183544 C66.7813219,86.9593671 67.2347396,86.9787342 67.6836004,86.9787342 C70.8495498,86.9787342 73.7363852,86.0001266 76.3030941,84.2331646 C82.0619548,80.2674684 87.8538536,76.3120253 92.7753726,71.2788608 C93.2151194,70.83 93.706132,70.3891139 94.8556257,70.2968354 C92.7514485,72.7017722 92.2547396,75.5225316 91.7546131,78.3227848 C91.1132207,81.9056962 93.2584105,85.4498734 96.7854991,86.3977215 C98.3018282,86.8032911 99.7930941,86.9935443 101.260436,86.9935443 C104.565373,86.9935443 107.750689,86.0308861 110.842588,84.4188608 C118.310309,80.5237975 124.626259,75.0873418 130.9536,69.6691139 C131.651955,69.0710127 132.302461,68.3772152 132.827651,67.6310127 C133.51917,66.6489873 133.477018,65.6794937 132.4836,65.6794937 C132.37993,65.6794937 132.267145,65.6897468 132.142967,65.7113924 C127.695373,69.2077215 123.31955,72.7735443 118.801322,76.1548101 C115.912208,78.3136709 112.738284,80.0772152 109.320562,81.3110127 C108.748664,81.5172152 108.233727,81.6186076 107.776892,81.6186076 C106.413221,81.6186076 105.5736,80.7186076 105.333221,79.024557 C105.217018,78.2088608 105.377651,77.4136709 105.526892,76.5877215 C106.047524,73.6849367 107.05917,71.3153165 107.740436,69.5449367 C109.925499,63.3110127 112.087778,58.8679747 116.260816,54.6493671 C117.032081,53.8689873 117.657524,52.9234177 117.974233,51.8365823 C117.029803,50.8101266 116.018157,50.4501266 114.990562,50.4501266 C114.150942,50.4501266 113.29993,50.6905063 112.460309,51.0026582 C109.816132,51.9835443 107.495499,53.5818987 105.528031,55.5527848 C98.1810688,62.9088608 90.7782839,70.1943038 82.4925877,76.5296203 C79.8711953,78.5358228 77.1358789,80.3722785 74.2296764,81.9455696 C73.8286637,82.1620253 73.4082839,82.4081013 72.9434738,82.4081013 C72.6928409,82.4081013 72.4285371,82.3363291 72.1482839,82.1517722 C71.3223346,80.8393671 71.9625877,79.6146835 72.6085371,78.4560759 C74.7594232,74.5997468 76.8863852,70.7274684 79.1739801,66.9508861 C80.7917017,64.2782278 81.9742333,61.4836709 82.6589169,58.4464557 C83.3014485,55.5937975 82.4754991,53.1626582 80.632208,51.0368354 C79.0327143,49.1912658 77.0709422,48.6273418 74.9804358,48.6273418 C74.0246131,48.6273418 73.0425877,48.7446835 72.0560055,48.9121519 C67.4398029,49.6948101 64.1405624,52.6397468 61.0087903,55.7988608 C60.2113219,56.6008861 59.6098029,57.6170886 58.4056257,57.9075949 C62.0546131,52.1532911 65.5953726,46.4046835 69.6305624,40.9477215 C75.6332207,32.8340506 81.9844865,25.0655696 89.2494232,18.0307595 C92.6739801,14.7155696 96.5781574,12.0543038 100.556385,9.47506329 C101.252461,9.02392405 102.018031,8.73797468 102.864486,8.64113924 C103.248411,8.59670886 103.598157,8.57278481 103.918284,8.57278481 C106.011069,8.57278481 106.731069,9.55936709 106.465626,12.0235443 C106.346005,13.1274684 106.015626,14.2439241 105.588411,15.2760759 C103.421575,20.5268354 99.806765,24.6862025 95.4571447,28.264557 C93.8701827,29.5689873 92.2125877,30.7891139 90.6370181,32.1072152 C85.5560055,36.3520253 79.9338536,39.7731646 74.0872713,42.8513924 C73.1485371,43.3458228 71.423727,43.4221519 72.1209422,44.9418987 C72.3738536,45.4955696 72.797651,45.6881013 73.2772713,45.6881013 C73.886765,45.6881013 74.5885371,45.3759494 75.1490434,45.1013924 C77.3625877,44.0122785 79.556765,42.8753165 81.6951194,41.6494937 C89.5968915,37.1198734 96.860689,31.7848101 103.207398,25.2148101 C107.247145,21.0303797 110.075879,16.351519 111.160436,10.5881013 C112.33955,4.32 109.016385,0.0467088608 102.556892,0.00113924051 C102.49993,0 102.442967,0 102.387145,0" id="Fill-1"></path>
            <path d="M121.0004,42.358204 C120.962805,38.1509888 123.577362,34.9212419 127.701413,34.0804825 C130.19521,33.5735204 132.6104,35.5284571 132.807489,38.0632673 C133.051286,41.1916217 128.397489,46.5745331 125.06521,46.3147863 C121.927742,46.0698495 121.027742,45.4945331 121.0004,42.358204" id="Fill-3"></path>
            <path d="M33.7686076,37.3565823 C34.8713924,37.3565823 35.3829114,37.2540506 35.7679747,37.1777215 C36.1268354,37.0763291 36.3318987,37 36.8194937,37 C37.8197468,37 39.895443,38.9606329 39.895443,41.7096203 C39.895443,42.9832911 39.2289873,43.8240506 37.9222785,43.8240506 C35.6916456,43.8240506 35.7167089,40.8187342 34.41,40.8187342 C33.4097468,40.8187342 33.5122785,42.1949367 33.5122785,42.3977215 L33.5122785,50.2140506 C33.5122785,53.2432911 35.8705063,51.793038 35.8705063,53.5748101 C35.8705063,54.3643038 35.3829114,55.4841772 30.5889873,55.4841772 C29.2822785,55.4841772 24.4872152,55.535443 24.4872152,53.5748101 C24.4872152,52.2259494 26.0764557,52.7602532 26.5891139,51.793038 C26.845443,51.2575949 26.9479747,49.7298734 26.9741772,49.0941772 L27.1792405,43.4674684 C27.2817722,40.7936709 26.7429114,40.8187342 26.3840506,40.8187342 C25.23,40.8187342 24.6660759,43.8240506 22.5892405,43.8240506 C21.5889873,43.8240506 21,42.906962 21,41.9898734 C21,39.8253165 22.8467089,37 24.3072152,37 C24.4872152,37 24.7686076,37.0763291 25.2562025,37.1777215 C25.7437975,37.2540506 26.4353165,37.3565823 27.4617722,37.3565823 L33.7686076,37.3565823 Z" id="Fill-5"></path>
            <path d="M40,46.2175949 C40,40.8198734 44.3325316,37 49.9216456,37 C56.9986076,37 59.7168354,43.1883544 59.7168354,46.4727848 C59.7168354,51.9468354 54.845443,55.5616456 49.6140506,55.5616456 C44.2049367,55.5616456 40,51.641519 40,46.2175949 M48.7425316,40.7936709 C47.3070886,40.7936709 46.5893671,42.2712658 46.5893671,43.5187342 C46.5893671,45.6821519 48.1273418,51.7679747 50.8968354,51.7679747 C52.4610127,51.7679747 53.1274684,50.4191139 53.1274684,49.0429114 C53.1274684,46.7268354 51.7432911,40.7936709 48.7425316,40.7936709" id="Fill-7"></path>
            <path d="M73.7686076,37.3565823 C74.8713924,37.3565823 75.3840506,37.2540506 75.7679747,37.1777215 C76.1268354,37.0763291 76.3318987,37 76.8194937,37 C77.8197468,37 79.8965823,38.9606329 79.8965823,41.7096203 C79.8965823,42.9832911 79.2289873,43.8240506 77.9222785,43.8240506 C75.6916456,43.8240506 75.7167089,40.8187342 74.41,40.8187342 C73.4108861,40.8187342 73.5122785,42.1949367 73.5122785,42.3977215 L73.5122785,50.2140506 C73.5122785,53.2432911 75.8716456,51.793038 75.8716456,53.5748101 C75.8716456,54.3643038 75.3840506,55.4841772 70.5889873,55.4841772 C69.2822785,55.4841772 64.4872152,55.535443 64.4872152,53.5748101 C64.4872152,52.2259494 66.0764557,52.7602532 66.5891139,51.793038 C66.8465823,51.2575949 66.9479747,49.7298734 66.9741772,49.0941772 L67.1792405,43.4674684 C67.2817722,40.7936709 66.7429114,40.8187342 66.3840506,40.8187342 C65.23,40.8187342 64.6672152,43.8240506 62.5892405,43.8240506 C61.5901266,43.8240506 61,42.906962 61,41.9898734 C61,39.8253165 62.8467089,37 64.3072152,37 C64.4872152,37 64.7686076,37.0763291 65.2562025,37.1777215 C65.7437975,37.2540506 66.4353165,37.3565823 67.4606329,37.3565823 L73.7686076,37.3565823 Z" id="Fill-9"></path>
            <path d="M83.2313924,46.09 C84.025443,44.3332911 85.076962,42.0924051 85.076962,40.0816456 C85.076962,38.3249367 85.8972152,37 88.1802532,37 C90.4097468,37 91.8201266,39.2670886 92.8203797,40.9463291 C93.2555696,41.6856962 97.1278481,49.476962 98.0506329,51.5651899 C98.8970886,53.4996203 100.282405,52.328481 100.282405,53.7787342 C100.282405,55.6379747 96.6402532,55.5616456 95.3586076,55.5616456 C91.6925316,55.5616456 89.486962,55.535443 89.486962,53.9575949 C89.486962,52.7363291 91.0511392,53.1931646 91.0511392,52.3034177 C91.0511392,51.1562025 90.4097468,51.0548101 86.2822785,51.0548101 C84.9493671,51.0548101 84.1541772,51.1060759 84.1541772,52.3535443 C84.1541772,53.3458228 85.7946835,52.6850633 85.7946835,54.0088608 C85.7946835,55.535443 83.0263291,55.5616456 81.9998734,55.5616456 C78.3337975,55.5616456 78,54.8746835 78,54.0601266 C78,52.8627848 79.3853165,53.2193671 80.1292405,52.3034177 C80.6931646,51.6164557 81.2308861,50.3929114 81.6159494,49.5783544 L83.2313924,46.09 Z M88.615443,47.9218987 C88.8729114,47.9218987 89.6407595,47.9731646 89.6407595,47.591519 C89.6407595,47.2098734 88.8979747,45.8860759 88.6917722,45.5294937 C88.4616456,45.1227848 88.0253165,44.1806329 87.4613924,44.1806329 C86.8462025,44.1806329 86.4110127,45.7083544 86.3073418,45.9886076 C86.2059494,46.2677215 85.7696203,47.2611392 85.7696203,47.5675949 C85.7696203,48.0005063 86.4110127,47.9218987 86.6935443,47.9218987 L88.615443,47.9218987 Z" id="Fill-11"></path>
            <path d="M101.488101,55.1287342 C100.667848,55.1287342 99.3588608,55.18 99.3588608,54.0088608 C99.3588608,52.4298734 101.360506,53.7536709 101.436835,50.7996203 C101.488101,48.941519 101.488101,47.3124051 101.488101,45.8097468 C101.488101,44.2820253 101.360506,42.8568354 101.308101,41.4305063 C101.256835,39.2910127 99,40.4108861 99,38.9606329 C99,37.1013924 103.026076,37 104.282658,37 C109.41038,37 109.666709,37.8658228 109.666709,38.7316456 C109.666709,40.2081013 107.641139,39.0870886 107.641139,41.4817722 L107.641139,49.5783544 C107.641139,51.4113924 107.948734,52.3034177 109.769241,52.3034177 C114.129114,52.3034177 112.641266,48.7626582 114.281772,48.7626582 C115.435823,48.7626582 115.872152,49.9850633 115.872152,50.9522785 C115.872152,52.9391139 114.43557,55.4841772 113.256456,55.4841772 C112.795063,55.4841772 112.436203,55.3839241 111.973671,55.3064557 C111.487215,55.2039241 110.923291,55.1287342 110.051772,55.1287342 L101.488101,55.1287342 Z" id="Fill-13"></path>
            <path d="M8.71949367,64.6506329 C8.71949367,64.9605063 8.76164557,65.115443 9.04189873,65.2703797 C9.25037975,65.385443 9.39620253,65.4458228 9.39620253,65.7044304 C9.39620253,65.9539241 9.3756962,66.4688608 7.32506329,66.4688608 C6.86708861,66.4688608 5.5364557,66.4586076 5.5364557,65.7659494 C5.4943038,64.9707595 6.26443038,65.8491139 6.26443038,63.7529114 C6.26443038,63.1946835 6.13911392,63.2151899 5.61848101,63.2151899 C4.16253165,63.2151899 4.29810127,63.2550633 4.29810127,64.186962 C4.29810127,65.6018987 4.94291139,65.0334177 4.94291139,65.7044304 C4.94291139,66.4278481 3.4243038,66.4688608 2.92417722,66.4688608 C2.44683544,66.4688608 1,66.4278481 1,65.7249367 C1,65.508481 1.15607595,65.3751899 1.33265823,65.2908861 C1.70746835,65.115443 1.84189873,65.1473418 1.84189873,62.988481 C1.84189873,60.2394937 1.80202532,60.4662025 1.41582278,60.26 C1.25974684,60.1768354 1.07291139,60.0834177 1.07291139,59.8783544 C1.07291139,59.0820253 2.81025316,59 3.3935443,59 C3.82987342,59 5.03746835,59.0512658 5.03746835,59.6710127 C5.03746835,59.9911392 4.85974684,60.1050633 4.62050633,60.2497468 C4.36075949,60.3955696 4.29810127,60.5186076 4.29810127,61.4379747 C4.29810127,62.0167089 4.56810127,61.9437975 5.06822785,61.9437975 L5.59911392,61.9437975 C6.28493671,61.9437975 6.26443038,61.8412658 6.26443038,61.52 C6.26443038,60.3955696 6.0878481,60.321519 5.95227848,60.2497468 C5.75405063,60.1358228 5.56721519,60.0435443 5.56721519,59.7746835 C5.56721519,59.5787342 5.52620253,59 7.59620253,59 C8.08493671,59 9.46797468,59.0102532 9.46797468,59.7336709 C9.46797468,59.9603797 9.35405063,60.1153165 9.14556962,60.2189873 C8.83455696,60.3534177 8.71949367,60.321519 8.71949367,61.965443 L8.71949367,64.6506329 Z" id="Fill-15"></path>
            <path d="M9,62.7389873 C9,60.5493671 10.7578481,59 13.0260759,59 C15.896962,59 17.0008861,61.5108861 17.0008861,62.8426582 C17.0008861,65.0641772 15.0243038,66.5303797 12.9007595,66.5303797 C10.7065823,66.5303797 9,64.94 9,62.7389873 M12.5475949,60.5391139 C11.965443,60.5391139 11.6737975,61.1383544 11.6737975,61.6441772 C11.6737975,62.5236709 12.2992405,64.9924051 13.4213924,64.9924051 C14.0559494,64.9924051 14.3259494,64.4444304 14.3259494,63.8873418 C14.3259494,62.9463291 13.7643038,60.5391139 12.5475949,60.5391139" id="Fill-17"></path>
            <path d="M21.7467089,63.4532911 C21.6840506,63.32 21.5701266,63.0078481 21.3821519,63.0078481 C21.0597468,63.0078481 21.1634177,64.3726582 21.1634177,64.7132911 C21.1634177,65.8183544 21.8298734,65.3034177 21.8298734,65.8605063 C21.8298734,66.4494937 20.7168354,66.47 20.3101266,66.47 C19.9455696,66.47 19,66.4392405 19,65.901519 C19,65.3136709 19.6243038,65.7989873 19.7074684,64.9502532 C19.7906329,64.0844304 19.8840506,63.1229114 19.8840506,61.6248101 C19.8840506,61.0050633 19.843038,60.6837975 19.7291139,60.4468354 C19.6243038,60.2292405 19.0307595,60.1574684 19.0307595,59.7336709 C19.0307595,59.1458228 19.9991139,59 20.8318987,59 C22.0486076,59 22.026962,59.2062025 22.3402532,59.7336709 C22.7036709,60.3443038 23.348481,62.0383544 23.8064557,62.1420253 C24.1288608,62.2126582 24.5560759,60.9629114 24.9297468,60.2816456 C25.4606329,59.3098734 25.4708861,59 26.8448101,59 C27.3016456,59 28.3429114,59.0307595 28.3429114,59.6824051 C28.3429114,60.0959494 27.8735443,60.1779747 27.7710127,60.53 C27.6867089,60.8182278 27.6137975,62.0383544 27.6137975,62.5031646 C27.6137975,62.6581013 27.6764557,63.7939241 27.7186076,64.755443 C27.7493671,65.5096203 28.3736709,65.3432911 28.3736709,65.8081013 C28.3736709,66.5018987 26.948481,66.47 26.4916456,66.47 C26.0644304,66.47 24.6392405,66.5121519 24.6392405,65.8502532 C24.6392405,65.4891139 25.1063291,65.4264557 25.1792405,65.0960759 C25.2213924,64.9206329 25.4287342,63.1434177 25.0653165,63.1434177 C24.7429114,63.1434177 24.4102532,64.0525316 24.1596203,64.5788608 C23.9306329,65.0539241 23.556962,66.2318987 23.2231646,66.1908861 C23.0568354,66.1703797 22.9748101,66.1908861 22.3505063,64.7964557 L21.7467089,63.4532911 Z" id="Fill-19"></path>
            <path d="M32.2960759,59.2073418 C33.6905063,59.2073418 33.8875949,59 34.0539241,59 C34.6474684,59 34.896962,60.0127848 34.896962,60.4673418 C34.896962,60.8079747 34.7625316,61.2124051 34.3558228,61.2124051 C33.5344304,61.2124051 34.1997468,60.2201266 32.2231646,60.2201266 C31.0679747,60.2201266 31.183038,60.4263291 31.183038,61.614557 C31.183038,62.2137975 31.2137975,62.2343038 31.8483544,62.2343038 C32.6389873,62.2343038 32.0465823,61.0870886 32.7848101,61.0870886 C33.3886076,61.0870886 33.4296203,62.2548101 33.4296203,62.656962 C33.4296203,63.0807595 33.3567089,64.3202532 32.7324051,64.3202532 C32.0875949,64.3202532 32.7324051,63.2368354 31.6820253,63.2368354 C31.2456962,63.2368354 31.2559494,63.6298734 31.2559494,63.9602532 C31.2559494,65.4674684 31.3596203,65.3968354 32.4521519,65.3968354 C34.5848101,65.3968354 33.9810127,63.9386076 34.835443,63.9386076 C35.166962,63.9386076 35.3344304,64.31 35.3344304,64.6005063 C35.3344304,65.3034177 34.7716456,66.5634177 34.3558228,66.5634177 C34.2829114,66.5634177 34.1165823,66.5326582 33.8978481,66.5007595 C33.6688608,66.4802532 33.3783544,66.4483544 33.0240506,66.4483544 L28.748481,66.4483544 C28.061519,66.4483544 28.0512658,66.1396203 28.0512658,66.0063291 C28.0512658,65.4367089 28.7587342,65.8912658 28.8316456,64.7964557 C28.956962,62.9155696 28.9672152,63.1024051 28.8624051,61.2317722 C28.7894937,59.6516456 28,60.4673418 28,59.7336709 C28,59.1036709 28.8726582,59.2073418 29.2998734,59.2073418 L32.2960759,59.2073418 Z" id="Fill-21"></path>
            <path d="M39.8635443,62.2240506 C39.8635443,60.9127848 39.7598734,60.6120253 39.6448101,60.4673418 C39.4055696,60.1665823 39,60.136962 39,59.7439241 C39,59 41.1212658,59 41.3308861,59 C41.9540506,59 43.234557,59.0205063 43.234557,59.724557 C43.234557,60.0959494 42.8381013,60.075443 42.6,60.3443038 C42.4029114,60.5710127 42.391519,61.5006329 42.391519,62.2240506 L42.391519,63.2459494 C42.391519,65.086962 42.5156962,65.0448101 42.7241772,65.1678481 C42.9839241,65.3239241 43.234557,65.3751899 43.234557,65.6953165 C43.234557,66.0051899 43.14,66.4711392 40.861519,66.4711392 C40.4251899,66.4711392 39.1139241,66.4608861 39.1139241,65.7989873 C39.1139241,65.4686076 39.4682278,65.4162025 39.634557,65.2202532 C39.7598734,65.0755696 39.8635443,64.6939241 39.8635443,63.2459494 L39.8635443,62.2240506 Z" id="Fill-23"></path>
            <path d="M46.7467089,63.4532911 C46.6840506,63.32 46.5701266,63.0078481 46.3821519,63.0078481 C46.0597468,63.0078481 46.1634177,64.3726582 46.1634177,64.7132911 C46.1634177,65.8183544 46.8298734,65.3034177 46.8298734,65.8605063 C46.8298734,66.4494937 45.7168354,66.47 45.3101266,66.47 C44.9467089,66.47 44,66.4392405 44,65.901519 C44,65.3136709 44.6243038,65.7989873 44.7074684,64.9502532 C44.7906329,64.0844304 44.8840506,63.1229114 44.8840506,61.6248101 C44.8840506,61.0050633 44.843038,60.6837975 44.7291139,60.4468354 C44.6243038,60.2292405 44.0307595,60.1574684 44.0307595,59.7336709 C44.0307595,59.1458228 44.9991139,59 45.8318987,59 C47.0486076,59 47.0281013,59.2062025 47.3402532,59.7336709 C47.7036709,60.3443038 48.3496203,62.0383544 48.8064557,62.1420253 C49.1288608,62.2126582 49.5560759,60.9629114 49.9297468,60.2816456 C50.4606329,59.3098734 50.4708861,59 51.8448101,59 C52.3016456,59 53.3429114,59.0307595 53.3429114,59.6824051 C53.3429114,60.0959494 52.8746835,60.1779747 52.7710127,60.53 C52.6867089,60.8182278 52.6137975,62.0383544 52.6137975,62.5031646 C52.6137975,62.6581013 52.6764557,63.7939241 52.7186076,64.755443 C52.7493671,65.5096203 53.3736709,65.3432911 53.3736709,65.8081013 C53.3736709,66.5018987 51.948481,66.47 51.4916456,66.47 C51.0644304,66.47 49.6392405,66.5121519 49.6392405,65.8502532 C49.6392405,65.4891139 50.1074684,65.4264557 50.1803797,65.0960759 C50.2213924,64.9206329 50.4287342,63.1434177 50.0664557,63.1434177 C49.7429114,63.1434177 49.4102532,64.0525316 49.1607595,64.5788608 C48.9306329,65.0539241 48.556962,66.2318987 48.2231646,66.1908861 C48.0579747,66.1703797 47.9748101,66.1908861 47.3505063,64.7964557 L46.7467089,63.4532911 Z" id="Fill-25"></path>
            <path d="M53.9672152,60.714557 C53.9672152,59.9398734 53,60.2805063 53,59.6311392 C53,59.2175949 53.4568354,59.1241772 53.7792405,59.1241772 C54.0401266,59.1241772 54.2896203,59.1446835 54.5493671,59.1446835 C56.0577215,59.1446835 56.9736709,59 57.4111392,59 C58.8249367,59 60.1886076,59.8168354 60.1886076,61.3650633 C60.1886076,62.9053165 58.8773418,63.7312658 57.4327848,63.7312658 C57.1194937,63.7312658 56.8073418,63.68 56.5270886,63.68 C56.4017722,63.68 56.3607595,63.7312658 56.3607595,63.8451899 L56.3607595,64.4444304 C56.391519,65.7351899 57.1502532,65.1997468 57.1502532,65.7978481 C57.1502532,66.4688608 55.6521519,66.4996203 55.1839241,66.4996203 C54.7475949,66.4996203 53.2073418,66.4893671 53.2073418,65.8183544 C53.2073418,65.2498734 53.9672152,65.6018987 53.9672152,64.7543038 L53.9672152,60.714557 Z M56.7549367,60.2189873 C56.3493671,60.2189873 56.3607595,60.3431646 56.3607595,60.5493671 L56.3607595,62.0987342 C56.3607595,62.3163291 56.2662025,62.5532911 56.8278481,62.5532911 C57.5148101,62.5532911 57.7859494,62.0372152 57.7859494,61.4072152 C57.7859494,60.7555696 57.4521519,60.2189873 56.7549367,60.2189873 L56.7549367,60.2189873 Z" id="Fill-27"></path>
            <path d="M61.7906329,61.2203797 C61.7906329,59.6197468 61,60.2805063 61,59.6391139 C61,59.0717722 61.8111392,59 62.2281013,59 C62.4456962,59 62.6541772,59.0193671 62.8729114,59.0296203 C63.0802532,59.0512658 63.2989873,59.0717722 63.5074684,59.0717722 C63.8401266,59.0717722 64.1727848,59.0512658 64.5156962,59.0296203 C64.8494937,59.0193671 65.1924051,59 65.5262025,59 C66.7007595,59 68.0632911,59.5160759 68.0632911,60.89 C68.0632911,61.5097468 67.7625316,62.1089873 67.1792405,62.3881013 C67.0858228,62.4393671 67.0129114,62.4712658 67.0129114,62.5943038 C67.0129114,62.7503797 67.148481,62.7913924 67.2726582,62.8426582 C68.0006329,63.111519 68.3241772,63.5865823 68.47,64.703038 C68.5953165,65.6622785 69.2697468,65.0858228 69.2697468,65.7146835 C69.2697468,66.1077215 68.7924051,66.5212658 67.6167089,66.5212658 C65.9522785,66.5212658 65.7437975,65.57 65.4213924,64.2063291 C65.3063291,63.7312658 65.1297468,63.2664557 64.5578481,63.2664557 C64.33,63.2664557 64.2456962,63.2972152 64.2456962,63.9488608 C64.2456962,64.2473418 64.2662025,64.6620253 64.3186076,64.9502532 C64.4017722,65.4253165 64.9326582,65.2806329 64.9326582,65.7762025 C64.9326582,66.1487342 64.6729114,66.4267089 62.9868354,66.4267089 C62.4867089,66.4267089 61.0102532,66.4267089 61.0102532,65.6736709 C61.0102532,65.1370886 61.7906329,65.508481 61.7906329,64.1653165 L61.7906329,61.2203797 Z M64.2046835,61.6749367 C64.183038,61.9449367 64.1306329,62.1716456 64.4746835,62.1716456 C65.1502532,62.1716456 65.3689873,61.7991139 65.3689873,61.1588608 C65.3689873,60.6518987 65.2448101,60.1358228 64.6410127,60.1358228 C64.2570886,60.1358228 64.2662025,60.3739241 64.2456962,60.6940506 L64.2046835,61.6749367 Z" id="Fill-29"></path>
            <path d="M69,62.7389873 C69,60.5493671 70.7578481,59 73.0260759,59 C75.8981013,59 76.9997468,61.5108861 76.9997468,62.8426582 C76.9997468,65.0641772 75.0243038,66.5303797 72.9007595,66.5303797 C70.7065823,66.5303797 69,64.94 69,62.7389873 M72.5475949,60.5391139 C71.965443,60.5391139 71.6737975,61.1383544 71.6737975,61.6441772 C71.6737975,62.5236709 72.2981013,64.9924051 73.4213924,64.9924051 C74.0548101,64.9924051 74.3259494,64.4444304 74.3259494,63.8873418 C74.3259494,62.9463291 73.765443,60.5391139 72.5475949,60.5391139" id="Fill-31"></path>
            <path d="M82.1710127,65.5711491 C81.9522785,65.9949466 81.7437975,66.4688706 81.1821519,66.4688706 C80.5794937,66.4688706 80.4222785,66.1282377 80.1944304,65.641782 L78.1244304,61.0962124 C77.8122785,60.4251997 77.7177215,60.3010225 77.3121519,60.2395035 C77.1048101,60.2087441 77,60.0538073 77,59.8373516 C77,59.0421618 78.6541772,59.0000099 79.1850633,59.0000099 C81.3689873,59.0000099 81.286962,59.5172251 81.286962,59.6710225 C81.286962,60.0640605 80.7868354,60.0845668 80.7868354,60.3636808 C80.7868354,60.5812757 81.1935443,61.3867187 81.4418987,61.9244403 C81.5364557,62.0987441 81.6503797,62.5020352 81.8793671,62.5122884 C82.2222785,62.5327947 82.4,61.9551997 82.5241772,61.7376048 C82.6494937,61.4892504 83.1279747,60.5607694 83.1279747,60.3124149 C83.1279747,59.9410225 82.5970886,60.0435542 82.5970886,59.6300099 C82.5970886,58.9897567 83.9083544,59.0000099 84.3253165,59.0000099 C85.635443,59.0000099 85.853038,59.2369719 85.853038,59.5992504 C85.853038,59.8783643 85.6456962,60.0127947 85.3962025,60.0435542 C84.948481,60.09482 84.9074684,60.0640605 84.5110127,60.8592504 L82.1710127,65.5711491 Z" id="Fill-33"></path>
            <path d="M90.2972152,59.2073418 C91.6916456,59.2073418 91.8887342,59 92.0539241,59 C92.6474684,59 92.8981013,60.0127848 92.8981013,60.4673418 C92.8981013,60.8079747 92.7625316,61.2124051 92.356962,61.2124051 C91.5355696,61.2124051 92.2008861,60.2201266 90.2243038,60.2201266 C89.0691139,60.2201266 89.183038,60.4263291 89.183038,61.614557 C89.183038,62.2137975 89.2149367,62.2343038 89.8494937,62.2343038 C90.6401266,62.2343038 90.0477215,61.0870886 90.7859494,61.0870886 C91.3886076,61.0870886 91.4307595,62.2548101 91.4307595,62.656962 C91.4307595,63.0807595 91.3578481,64.3202532 90.7335443,64.3202532 C90.0887342,64.3202532 90.7335443,63.2368354 89.6831646,63.2368354 C89.2456962,63.2368354 89.2559494,63.6298734 89.2559494,63.9602532 C89.2559494,65.4674684 89.3607595,65.3968354 90.4532911,65.3968354 C92.5859494,65.3968354 91.9821519,63.9386076 92.835443,63.9386076 C93.1681013,63.9386076 93.3355696,64.31 93.3355696,64.6005063 C93.3355696,65.3034177 92.7727848,66.5634177 92.356962,66.5634177 C92.2840506,66.5634177 92.1177215,66.5326582 91.8989873,66.5007595 C91.67,66.4802532 91.3783544,66.4483544 91.0251899,66.4483544 L86.7496203,66.4483544 C86.0626582,66.4483544 86.0524051,66.1396203 86.0524051,66.0063291 C86.0524051,65.4367089 86.7598734,65.8912658 86.8316456,64.7964557 C86.9581013,62.9155696 86.9683544,63.1024051 86.8635443,61.2317722 C86.7906329,59.6516456 86,60.4673418 86,59.7336709 C86,59.1036709 86.8737975,59.2073418 87.3010127,59.2073418 L90.2972152,59.2073418 Z" id="Fill-35"></path>
            <path d="M96.7467089,63.4532911 C96.6840506,63.32 96.5701266,63.0078481 96.3821519,63.0078481 C96.0597468,63.0078481 96.164557,64.3726582 96.164557,64.7132911 C96.164557,65.8183544 96.8298734,65.3034177 96.8298734,65.8605063 C96.8298734,66.4494937 95.7168354,66.47 95.3112658,66.47 C94.9467089,66.47 94,66.4392405 94,65.901519 C94,65.3136709 94.6243038,65.7989873 94.7074684,64.9502532 C94.7906329,64.0844304 94.8851899,63.1229114 94.8851899,61.6248101 C94.8851899,61.0050633 94.843038,60.6837975 94.7291139,60.4468354 C94.6243038,60.2292405 94.0318987,60.1574684 94.0318987,59.7336709 C94.0318987,59.1458228 94.9991139,59 95.8318987,59 C97.0486076,59 97.0281013,59.2062025 97.3402532,59.7336709 C97.7036709,60.3443038 98.3496203,62.0383544 98.8064557,62.1420253 C99.1288608,62.2126582 99.5560759,60.9629114 99.9297468,60.2816456 C100.461772,59.3098734 100.472025,59 101.84481,59 C102.302785,59 103.342911,59.0307595 103.342911,59.6824051 C103.342911,60.0959494 102.874684,60.1779747 102.771013,60.53 C102.686709,60.8182278 102.614937,62.0383544 102.614937,62.5031646 C102.614937,62.6581013 102.677595,63.7939241 102.718608,64.755443 C102.750506,65.5096203 103.373671,65.3432911 103.373671,65.8081013 C103.373671,66.5018987 101.948481,66.47 101.491646,66.47 C101.06443,66.47 99.6392405,66.5121519 99.6392405,65.8502532 C99.6392405,65.4891139 100.107468,65.4264557 100.18038,65.0960759 C100.221392,64.9206329 100.428734,63.1434177 100.065316,63.1434177 C99.7429114,63.1434177 99.4102532,64.0525316 99.1607595,64.5788608 C98.9317722,65.0539241 98.556962,66.2318987 98.2243038,66.1908861 C98.0568354,66.1703797 97.9748101,66.1908861 97.3505063,64.7964557 L96.7467089,63.4532911 Z" id="Fill-37"></path>
            <path d="M107.297215,59.2073418 C108.691646,59.2073418 108.888734,59 109.055063,59 C109.648608,59 109.898101,60.0127848 109.898101,60.4673418 C109.898101,60.8079747 109.762532,61.2124051 109.356962,61.2124051 C108.53557,61.2124051 109.200886,60.2201266 107.224304,60.2201266 C106.069114,60.2201266 106.183038,60.4263291 106.183038,61.614557 C106.183038,62.2137975 106.214937,62.2343038 106.849494,62.2343038 C107.640127,62.2343038 107.047722,61.0870886 107.785949,61.0870886 C108.388608,61.0870886 108.430759,62.2548101 108.430759,62.656962 C108.430759,63.0807595 108.357848,64.3202532 107.733544,64.3202532 C107.088734,64.3202532 107.733544,63.2368354 106.683165,63.2368354 C106.246835,63.2368354 106.255949,63.6298734 106.255949,63.9602532 C106.255949,65.4674684 106.360759,65.3968354 107.453291,65.3968354 C109.585949,65.3968354 108.982152,63.9386076 109.835443,63.9386076 C110.168101,63.9386076 110.33557,64.31 110.33557,64.6005063 C110.33557,65.3034177 109.772785,66.5634177 109.356962,66.5634177 C109.284051,66.5634177 109.117722,66.5326582 108.898987,66.5007595 C108.67,66.4802532 108.379494,66.4483544 108.02519,66.4483544 L103.74962,66.4483544 C103.062658,66.4483544 103.052405,66.1396203 103.052405,66.0063291 C103.052405,65.4367089 103.759873,65.8912658 103.831646,64.7964557 C103.958101,62.9155696 103.968354,63.1024051 103.863544,61.2317722 C103.790633,59.6516456 103,60.4673418 103,59.7336709 C103,59.1036709 103.873797,59.2073418 104.301013,59.2073418 L107.297215,59.2073418 Z" id="Fill-39"></path>
            <path d="M116.566329,61.604025 C116.690506,61.7065566 117.023165,62.0073161 117.211139,62.0073161 C117.470886,62.0073161 117.481139,61.5823794 117.481139,61.4069363 C117.481139,61.149468 117.470886,60.7051642 117.387722,60.4670629 C117.243038,60.0330123 116.690506,60.187949 116.690506,59.6308604 C116.690506,58.9689617 117.752278,59.0008604 118.188608,59.0008604 C118.647722,59.0008604 119.781266,58.9484553 119.781266,59.6616199 C119.781266,60.2517465 119.229873,60.0330123 119.052152,60.5080756 C118.917722,60.8806072 118.917722,61.5208604 118.917722,61.9127591 L118.917722,64.5899743 C118.917722,65.0536452 118.979241,66.4697212 118.283165,66.4697212 C118.074684,66.4697212 117.896962,66.3455439 117.742025,66.2122528 L114.527089,63.3493414 C114.382405,63.2160503 114.111266,62.9676958 113.892532,62.9676958 C113.570127,62.9676958 113.559873,63.6387085 113.559873,63.8563034 C113.559873,64.1445313 113.570127,64.5273161 113.632785,64.7961769 C113.787722,65.4569363 114.339114,65.2097212 114.339114,65.7155439 C114.339114,66.4082022 113.268228,66.4697212 112.779494,66.4697212 C112.301013,66.4697212 111.228987,66.4082022 111.228987,65.7360503 C111.228987,65.1880756 111.832785,65.4056705 111.936456,64.744911 C112.009367,64.299468 112.031013,63.6501009 112.031013,63.1852908 C112.031013,62.4402275 112.031013,61.6860503 111.915949,60.9421262 C111.748481,59.9088351 111,60.3121262 111,59.6923794 C111,58.9587085 112.404684,59.0008604 112.872911,59.0008604 C113.517722,59.0008604 113.632785,59.0418731 114.099873,59.4554174 L116.566329,61.604025 Z" id="Fill-41"></path>
            <path d="M125.181266,59.1446835 C125.628987,59.1446835 125.837468,59.1036709 125.992405,59.0729114 C126.138228,59.0296203 126.221392,59 126.41962,59 C126.82519,59 127.668228,59.7951899 127.668228,60.9116456 C127.668228,61.4277215 127.397089,61.7694937 126.866203,61.7694937 C125.961646,61.7694937 125.971899,60.5493671 125.441013,60.5493671 C125.035443,60.5493671 125.077595,61.1075949 125.077595,61.1907595 L125.077595,64.3624051 C125.077595,65.5905063 126.034557,65.0026582 126.034557,65.7249367 C126.034557,66.0462025 125.837468,66.5007595 123.891646,66.5007595 C123.360759,66.5007595 121.414937,66.5224051 121.414937,65.7249367 C121.414937,65.1781013 122.060886,65.394557 122.268228,65.0026582 C122.371899,64.7850633 122.414051,64.1653165 122.425443,63.9078481 L122.507468,61.6236709 C122.54962,60.5402532 122.330886,60.5493671 122.185063,60.5493671 C121.716835,60.5493671 121.487848,61.7694937 120.645949,61.7694937 C120.239241,61.7694937 120,61.396962 120,61.0244304 C120,60.1472152 120.74962,59 121.342025,59 C121.414937,59 121.53,59.0296203 121.727089,59.0729114 C121.925316,59.1036709 122.20557,59.1446835 122.621392,59.1446835 L125.181266,59.1446835 Z" id="Fill-43"></path>
            <path d="M128.197089,61.4060759 C128.197089,60.3329114 129.237215,59 131.255949,59 C131.921266,59 132.669747,59.2893671 132.826962,59.2893671 C132.971646,59.2893671 133.117468,59.1446835 133.336203,59.1446835 C133.690506,59.1446835 134.48,59.9398734 134.48,60.8079747 C134.48,61.1588608 134.252152,61.5097468 133.867089,61.5097468 C133.169873,61.5097468 132.764304,60.3329114 131.682025,60.3329114 C131.35962,60.3329114 131.016709,60.4775949 131.016709,60.8489873 C131.016709,61.6646835 132.441899,61.4470886 133.648354,62.2422785 C134.294304,62.6660759 134.61557,63.1844304 134.61557,63.9591139 C134.61557,65.1678481 133.617595,66.531519 131.193291,66.531519 C130.506329,66.531519 129.330633,66.3560759 128.738228,66.0348101 C128.239241,65.7556962 128,64.6608861 128,64.134557 C128,63.8543038 128.124177,63.5763291 128.436329,63.5763291 C129.174557,63.5763291 129.05038,65.2191139 130.964304,65.2191139 C131.193291,65.2191139 131.76519,65.1051899 131.76519,64.7121519 C131.76519,63.9693671 130.34,64.1550633 129.18481,63.234557 C128.612911,62.7811392 128.197089,62.15 128.197089,61.4060759" id="Fill-45"></path>
        </g>
    </g>
</svg>