<?xml version="1.0" encoding="UTF-8"?>
<svg width="200px" height="200px" viewBox="0 0 200 200" version="1.1" xmlns="http://www.w3.org/2000/svg" xmlns:xlink="http://www.w3.org/1999/xlink">
    <!-- Generator: Sketch 51.2 (57519) - http://www.bohemiancoding.com/sketch -->
    <title>thiHover</title>
    <desc>Created with Sketch.</desc>
    <defs></defs>
    <g id="thiHover" stroke="none" stroke-width="1" fill="none" fill-rule="evenodd">
        <rect id="Rectangle-5-Copy-4" fill-rule="nonzero" x="0" y="0" width="200" height="200"></rect>
        <g transform="translate(33.000000, 55.000000)">
            <path d="M102.387145,0 C95.1119548,0 89.1970181,3.3664557 83.9553726,7.95987342 C74.4917017,16.2535443 67.3885371,26.4953165 60.7023346,36.9740506 C56.896132,42.9379747 53.2300561,49.0374684 50.3090434,55.5186076 C49.7610688,56.7353165 49.136765,57.9041772 48.1547396,58.8725316 C40.2404358,66.6672152 32.7533472,74.9289873 23.2885371,81.0068354 C21.2857523,82.293038 19.2943599,83.5746835 16.9475245,84.1670886 C16.2560055,84.3402532 15.6248662,84.4268354 15.0586637,84.4268354 C12.715246,84.4268354 11.4768915,82.9446835 11.5896764,80.0487342 C11.7241067,76.6002532 13.0558789,73.4331646 14.6257523,70.4346835 C17.2015751,65.5211392 20.3549928,60.9459494 23.5346131,56.3981013 C24.7023346,54.7291139 26.1765118,53.6468354 28.2749928,53.2811392 C29.3732207,53.0908861 30.4509422,52.9917722 31.5092966,52.9917722 C34.2389169,52.9917722 36.8386637,53.6525316 39.3165118,55.1164557 C40.1208156,55.591519 40.7884105,56.3627848 41.8046131,56.3627848 C41.8832207,56.3627848 41.9641067,56.3582278 42.046132,56.3479747 C42.5679042,54.5297468 42.6317017,54.3622785 42.263727,53.786962 C39.6742333,49.7494937 35.3781574,48.6216456 30.7573979,47.6122785 C32.3830941,45.535443 33.6465118,43.6955696 35.2460055,42.1097468 C38.9804358,38.4094937 42.7000561,34.6955696 46.4310688,30.993038 C47.5247396,29.9073418 48.5557523,28.7886076 49.0228409,27.298481 C47.5042333,25.9518987 47.5030941,25.9553165 46.1143599,25.8835443 C45.9036004,25.8721519 45.6928409,25.8675949 45.4832207,25.8675949 C42.8823346,25.8675949 40.4079042,26.6718987 37.8844865,27.1674684 C34.8814485,27.7564557 32.686132,29.3867089 31.0251194,31.9841772 C28.1508156,36.483038 25.0589169,40.8451899 22.1230941,45.3075949 C21.2834738,46.5846835 20.3641067,47.3206329 18.7304358,47.5792405 C16.523727,47.9278481 14.2987903,48.415443 12.3449928,49.7643038 C10.5632207,50.9958228 9.62334724,52.4848101 9.71676496,54.6448101 C9.80448648,56.6760759 11.4256257,57.1534177 13.0000561,57.5988608 C12.4646131,58.8087342 11.5782839,59.3908861 10.8753726,60.12 C7.94410673,63.1583544 4.4079042,65.5553165 1.60081559,68.7246835 C1.12461306,69.2635443 0.607397869,69.7693671 0.166511793,70.3344304 C-0.11146289,70.6921519 -0.0146274474,71.1205063 0.259929515,71.4656962 C0.467271287,71.7277215 0.725878882,71.8359494 1.02549913,71.8359494 C1.13372698,71.8359494 1.24537255,71.8222785 1.36271432,71.7960759 C1.99157508,71.6593671 2.25018268,70.8436709 3.05562572,70.8436709 C3.12967635,70.8436709 3.2071447,70.8493671 3.2914485,70.8641772 C3.02030926,71.9635443 2.88587888,73.0913924 2.46777762,74.1041772 C1.48917002,76.4726582 1.39347382,78.9573418 1.69537255,81.3850633 C2.25701812,85.9078481 5.032208,89.3791139 10.1713219,89.4235443 L10.3330941,89.4235443 C14.7339801,89.4235443 18.5082839,87.8491139 22.1527143,85.8007595 C26.7541067,83.216962 30.677651,79.7058228 34.486132,76.1046835 C37.8548662,72.9170886 41.0811953,69.5813924 44.3895498,66.3311392 C44.8327143,65.8948101 45.1847396,65.2203797 46.1211953,65.2203797 L46.1679042,65.2203797 C43.9270181,72.5240506 40.5058789,79.1977215 38.2911953,86.3225316 C38.9963852,86.494557 39.6525877,86.58 40.2609422,86.58 C42.3366384,86.58 43.8598029,85.5786076 44.8748662,83.5473418 C47.3048662,78.6827848 49.5241067,73.7156962 52.9042333,69.3740506 C57.2515751,63.7906329 61.4348662,58.0750633 67.3543599,53.9396203 C67.3543599,53.9396203 70.1215751,52.0872152 72.6039801,52.0872152 C73.2305624,52.0872152 73.8377776,52.2034177 74.3789169,52.4996203 C76.1196764,53.4474684 74.5498029,55.6781013 73.697651,57.064557 C71.5957523,60.48 69.0848662,63.625443 66.3814485,66.5681013 C64.0300561,69.1268354 62.542208,72.1481013 61.0179042,75.1488608 C60.2466384,76.6651899 59.9549928,78.4446835 59.9538536,80.2287342 C59.9527143,84.4781013 61.9999295,86.5458228 66.3210688,86.9183544 C66.7813219,86.9593671 67.2347396,86.9787342 67.6836004,86.9787342 C70.8495498,86.9787342 73.7363852,86.0001266 76.3030941,84.2331646 C82.0619548,80.2674684 87.8538536,76.3120253 92.7753726,71.2788608 C93.2151194,70.83 93.706132,70.3891139 94.8556257,70.2968354 C92.7514485,72.7017722 92.2547396,75.5225316 91.7546131,78.3227848 C91.1132207,81.9056962 93.2584105,85.4498734 96.7854991,86.3977215 C98.3018282,86.8032911 99.7930941,86.9935443 101.260436,86.9935443 C104.565373,86.9935443 107.750689,86.0308861 110.842588,84.4188608 C118.310309,80.5237975 124.626259,75.0873418 130.9536,69.6691139 C131.651955,69.0710127 132.302461,68.3772152 132.827651,67.6310127 C133.51917,66.6489873 133.477018,65.6794937 132.4836,65.6794937 C132.37993,65.6794937 132.267145,65.6897468 132.142967,65.7113924 C127.695373,69.2077215 123.31955,72.7735443 118.801322,76.1548101 C115.912208,78.3136709 112.738284,80.0772152 109.320562,81.3110127 C108.748664,81.5172152 108.233727,81.6186076 107.776892,81.6186076 C106.413221,81.6186076 105.5736,80.7186076 105.333221,79.024557 C105.217018,78.2088608 105.377651,77.4136709 105.526892,76.5877215 C106.047524,73.6849367 107.05917,71.3153165 107.740436,69.5449367 C109.925499,63.3110127 112.087778,58.8679747 116.260816,54.6493671 C117.032081,53.8689873 117.657524,52.9234177 117.974233,51.8365823 C117.029803,50.8101266 116.018157,50.4501266 114.990562,50.4501266 C114.150942,50.4501266 113.29993,50.6905063 112.460309,51.0026582 C109.816132,51.9835443 107.495499,53.5818987 105.528031,55.5527848 C98.1810688,62.9088608 90.7782839,70.1943038 82.4925877,76.5296203 C79.8711953,78.5358228 77.1358789,80.3722785 74.2296764,81.9455696 C73.8286637,82.1620253 73.4082839,82.4081013 72.9434738,82.4081013 C72.6928409,82.4081013 72.4285371,82.3363291 72.1482839,82.1517722 C71.3223346,80.8393671 71.9625877,79.6146835 72.6085371,78.4560759 C74.7594232,74.5997468 76.8863852,70.7274684 79.1739801,66.9508861 C80.7917017,64.2782278 81.9742333,61.4836709 82.6589169,58.4464557 C83.3014485,55.5937975 82.4754991,53.1626582 80.632208,51.0368354 C79.0327143,49.1912658 77.0709422,48.6273418 74.9804358,48.6273418 C74.0246131,48.6273418 73.0425877,48.7446835 72.0560055,48.9121519 C67.4398029,49.6948101 64.1405624,52.6397468 61.0087903,55.7988608 C60.2113219,56.6008861 59.6098029,57.6170886 58.4056257,57.9075949 C62.0546131,52.1532911 65.5953726,46.4046835 69.6305624,40.9477215 C75.6332207,32.8340506 81.9844865,25.0655696 89.2494232,18.0307595 C92.6739801,14.7155696 96.5781574,12.0543038 100.556385,9.47506329 C101.252461,9.02392405 102.018031,8.73797468 102.864486,8.64113924 C103.248411,8.59670886 103.598157,8.57278481 103.918284,8.57278481 C106.011069,8.57278481 106.731069,9.55936709 106.465626,12.0235443 C106.346005,13.1274684 106.015626,14.2439241 105.588411,15.2760759 C103.421575,20.5268354 99.806765,24.6862025 95.4571447,28.264557 C93.8701827,29.5689873 92.2125877,30.7891139 90.6370181,32.1072152 C85.5560055,36.3520253 79.9338536,39.7731646 74.0872713,42.8513924 C73.1485371,43.3458228 71.423727,43.4221519 72.1209422,44.9418987 C72.3738536,45.4955696 72.797651,45.6881013 73.2772713,45.6881013 C73.886765,45.6881013 74.5885371,45.3759494 75.1490434,45.1013924 C77.3625877,44.0122785 79.556765,42.8753165 81.6951194,41.6494937 C89.5968915,37.1198734 96.860689,31.7848101 103.207398,25.2148101 C107.247145,21.0303797 110.075879,16.351519 111.160436,10.5881013 C112.33955,4.32 109.016385,0.0467088608 102.556892,0.00113924051 C102.49993,0 102.442967,0 102.387145,0" id="Fill-1" fill="#656464"></path>
            <path d="M120.759894,42.5354192 C120.722299,38.328204 123.336856,35.0984571 127.460906,34.2576976 C129.954704,33.7507356 132.369894,35.7056723 132.566982,38.2404825 C132.81078,41.3688369 128.156982,46.7517483 124.824704,46.4920014 C121.687236,46.2470647 120.787236,45.6717483 120.759894,42.5354192" id="Fill-3" fill="#656464"></path>
            <path d="M33.2749367,37.951519 C34.3777215,37.951519 34.8892405,37.8489873 35.2743038,37.7726582 C35.6331646,37.6712658 35.8382278,37.5949367 36.3258228,37.5949367 C37.3260759,37.5949367 39.4017722,39.5555696 39.4017722,42.304557 C39.4017722,43.5782278 38.7353165,44.4189873 37.4286076,44.4189873 C35.1979747,44.4189873 35.223038,41.4136709 33.9163291,41.4136709 C32.9160759,41.4136709 33.0186076,42.7898734 33.0186076,42.9926582 L33.0186076,50.8089873 C33.0186076,53.8382278 35.3768354,52.3879747 35.3768354,54.1697468 C35.3768354,54.9592405 34.8892405,56.0791139 30.0953165,56.0791139 C28.7886076,56.0791139 23.9935443,56.1303797 23.9935443,54.1697468 C23.9935443,52.8208861 25.5827848,53.3551899 26.095443,52.3879747 C26.3517722,51.8525316 26.4543038,50.3248101 26.4805063,49.6891139 L26.6855696,44.0624051 C26.7881013,41.3886076 26.2492405,41.4136709 25.8903797,41.4136709 C24.7363291,41.4136709 24.1724051,44.4189873 22.0955696,44.4189873 C21.0953165,44.4189873 20.5063291,43.5018987 20.5063291,42.5848101 C20.5063291,40.4202532 22.353038,37.5949367 23.8135443,37.5949367 C23.9935443,37.5949367 24.2749367,37.6712658 24.7625316,37.7726582 C25.2501266,37.8489873 25.9416456,37.951519 26.9681013,37.951519 L33.2749367,37.951519 Z" id="Fill-5" fill="#F9B006"></path>
            <path d="M39.8734177,46.8125316 C39.8734177,41.4148101 44.2059494,37.5949367 49.7950633,37.5949367 C56.8720253,37.5949367 59.5902532,43.7832911 59.5902532,47.0677215 C59.5902532,52.5417722 54.7188608,56.1565823 49.4874684,56.1565823 C44.0783544,56.1565823 39.8734177,52.2364557 39.8734177,46.8125316 M48.6159494,41.3886076 C47.1805063,41.3886076 46.4627848,42.8662025 46.4627848,44.1136709 C46.4627848,46.2770886 48.0007595,52.3629114 50.7702532,52.3629114 C52.3344304,52.3629114 53.0008861,51.0140506 53.0008861,49.6378481 C53.0008861,47.3217722 51.6167089,41.3886076 48.6159494,41.3886076" id="Fill-7" fill="#F9B006"></path>
            <path d="M73.1483544,37.951519 C74.2511392,37.951519 74.7637975,37.8489873 75.1477215,37.7726582 C75.5065823,37.6712658 75.7116456,37.5949367 76.1992405,37.5949367 C77.1994937,37.5949367 79.2763291,39.5555696 79.2763291,42.304557 C79.2763291,43.5782278 78.6087342,44.4189873 77.3020253,44.4189873 C75.0713924,44.4189873 75.0964557,41.4136709 73.7897468,41.4136709 C72.7906329,41.4136709 72.8920253,42.7898734 72.8920253,42.9926582 L72.8920253,50.8089873 C72.8920253,53.8382278 75.2513924,52.3879747 75.2513924,54.1697468 C75.2513924,54.9592405 74.7637975,56.0791139 69.9687342,56.0791139 C68.6620253,56.0791139 63.866962,56.1303797 63.866962,54.1697468 C63.866962,52.8208861 65.4562025,53.3551899 65.9688608,52.3879747 C66.2263291,51.8525316 66.3277215,50.3248101 66.3539241,49.6891139 L66.5589873,44.0624051 C66.661519,41.3886076 66.1226582,41.4136709 65.7637975,41.4136709 C64.6097468,41.4136709 64.046962,44.4189873 61.9689873,44.4189873 C60.9698734,44.4189873 60.3797468,43.5018987 60.3797468,42.5848101 C60.3797468,40.4202532 62.2264557,37.5949367 63.686962,37.5949367 C63.866962,37.5949367 64.1483544,37.6712658 64.6359494,37.7726582 C65.1235443,37.8489873 65.8150633,37.951519 66.8403797,37.951519 L73.1483544,37.951519 Z" id="Fill-9" fill="#F9B006"></path>
            <path d="M82.6997468,46.6849367 C83.4937975,44.9282278 84.5453165,42.6873418 84.5453165,40.6765823 C84.5453165,38.9198734 85.3655696,37.5949367 87.6486076,37.5949367 C89.8781013,37.5949367 91.288481,39.8620253 92.2887342,41.5412658 C92.7239241,42.2806329 96.5962025,50.0718987 97.5189873,52.1601266 C98.365443,54.094557 99.7507595,52.9234177 99.7507595,54.3736709 C99.7507595,56.2329114 96.1086076,56.1565823 94.826962,56.1565823 C91.1608861,56.1565823 88.9553165,56.1303797 88.9553165,54.5525316 C88.9553165,53.3312658 90.5194937,53.7881013 90.5194937,52.8983544 C90.5194937,51.7511392 89.8781013,51.6497468 85.7506329,51.6497468 C84.4177215,51.6497468 83.6225316,51.7010127 83.6225316,52.948481 C83.6225316,53.9407595 85.263038,53.28 85.263038,54.6037975 C85.263038,56.1303797 82.4946835,56.1565823 81.4682278,56.1565823 C77.8021519,56.1565823 77.4683544,55.4696203 77.4683544,54.6550633 C77.4683544,53.4577215 78.8536709,53.8143038 79.5975949,52.8983544 C80.161519,52.2113924 80.6992405,50.9878481 81.0843038,50.1732911 L82.6997468,46.6849367 Z M88.0837975,48.5168354 C88.3412658,48.5168354 89.1091139,48.5681013 89.1091139,48.1864557 C89.1091139,47.8048101 88.3663291,46.4810127 88.1601266,46.1244304 C87.93,45.7177215 87.4936709,44.7755696 86.9297468,44.7755696 C86.314557,44.7755696 85.8793671,46.3032911 85.7756962,46.5835443 C85.6743038,46.8626582 85.2379747,47.8560759 85.2379747,48.1625316 C85.2379747,48.595443 85.8793671,48.5168354 86.1618987,48.5168354 L88.0837975,48.5168354 Z" id="Fill-11" fill="#F9B006"></path>
            <path d="M101.602025,55.7236709 C100.781772,55.7236709 99.4727848,55.7749367 99.4727848,54.6037975 C99.4727848,53.0248101 101.47443,54.3486076 101.550759,51.394557 C101.602025,49.5364557 101.602025,47.9073418 101.602025,46.4046835 C101.602025,44.876962 101.47443,43.4517722 101.422025,42.025443 C101.370759,39.8859494 99.1139241,41.0058228 99.1139241,39.5555696 C99.1139241,37.6963291 103.14,37.5949367 104.396582,37.5949367 C109.524304,37.5949367 109.780633,38.4607595 109.780633,39.3265823 C109.780633,40.803038 107.755063,39.6820253 107.755063,42.0767089 L107.755063,50.1732911 C107.755063,52.0063291 108.062658,52.8983544 109.883165,52.8983544 C114.243038,52.8983544 112.75519,49.3575949 114.395696,49.3575949 C115.549747,49.3575949 115.986076,50.58 115.986076,51.5472152 C115.986076,53.5340506 114.549494,56.0791139 113.37038,56.0791139 C112.908987,56.0791139 112.550127,55.9788608 112.087595,55.9013924 C111.601139,55.7988608 111.037215,55.7236709 110.165696,55.7236709 L101.602025,55.7236709 Z" id="Fill-13" fill="#F9B006"></path>
            <path d="M8.85873418,64.8911392 C8.85873418,65.2010127 8.90088608,65.3559494 9.18113924,65.5108861 C9.38962025,65.6259494 9.53544304,65.6863291 9.53544304,65.9449367 C9.53544304,66.1944304 9.51493671,66.7093671 7.4643038,66.7093671 C7.00632911,66.7093671 5.6756962,66.6991139 5.6756962,66.0064557 C5.6335443,65.2112658 6.40367089,66.0896203 6.40367089,63.9934177 C6.40367089,63.4351899 6.27835443,63.4556962 5.75772152,63.4556962 C4.30177215,63.4556962 4.43734177,63.4955696 4.43734177,64.4274684 C4.43734177,65.8424051 5.0821519,65.2739241 5.0821519,65.9449367 C5.0821519,66.6683544 3.5635443,66.7093671 3.06341772,66.7093671 C2.58607595,66.7093671 1.13924051,66.6683544 1.13924051,65.965443 C1.13924051,65.7489873 1.29531646,65.6156962 1.47189873,65.5313924 C1.84670886,65.3559494 1.98113924,65.3878481 1.98113924,63.2289873 C1.98113924,60.48 1.94126582,60.7067089 1.55506329,60.5005063 C1.39898734,60.4173418 1.2121519,60.3239241 1.2121519,60.1188608 C1.2121519,59.3225316 2.94949367,59.2405063 3.53278481,59.2405063 C3.96911392,59.2405063 5.17670886,59.2917722 5.17670886,59.911519 C5.17670886,60.2316456 4.99898734,60.3455696 4.75974684,60.4902532 C4.5,60.6360759 4.43734177,60.7591139 4.43734177,61.678481 C4.43734177,62.2572152 4.70734177,62.1843038 5.20746835,62.1843038 L5.73835443,62.1843038 C6.42417722,62.1843038 6.40367089,62.0817722 6.40367089,61.7605063 C6.40367089,60.6360759 6.22708861,60.5620253 6.09151899,60.4902532 C5.89329114,60.3763291 5.7064557,60.2840506 5.7064557,60.0151899 C5.7064557,59.8192405 5.66544304,59.2405063 7.73544304,59.2405063 C8.22417722,59.2405063 9.60721519,59.2507595 9.60721519,59.9741772 C9.60721519,60.2008861 9.49329114,60.3558228 9.28481013,60.4594937 C8.97379747,60.5939241 8.85873418,60.5620253 8.85873418,62.2059494 L8.85873418,64.8911392 Z" id="Fill-15" fill="#F9B006"></path>
            <path d="M9.11392405,62.9794937 C9.11392405,60.7898734 10.8717722,59.2405063 13.14,59.2405063 C16.0108861,59.2405063 17.1148101,61.7513924 17.1148101,63.0831646 C17.1148101,65.3046835 15.1382278,66.7708861 13.0146835,66.7708861 C10.8205063,66.7708861 9.11392405,65.1805063 9.11392405,62.9794937 M12.661519,60.7796203 C12.0793671,60.7796203 11.7877215,61.3788608 11.7877215,61.8846835 C11.7877215,62.7641772 12.4131646,65.2329114 13.5353165,65.2329114 C14.1698734,65.2329114 14.4398734,64.6849367 14.4398734,64.1278481 C14.4398734,63.1868354 13.8782278,60.7796203 12.661519,60.7796203" id="Fill-17" fill="#F9B006"></path>
            <path d="M20.974557,63.6937975 C20.9118987,63.5605063 20.7979747,63.2483544 20.61,63.2483544 C20.2875949,63.2483544 20.3912658,64.6131646 20.3912658,64.9537975 C20.3912658,66.0588608 21.0577215,65.5439241 21.0577215,66.1010127 C21.0577215,66.69 19.9446835,66.7105063 19.5379747,66.7105063 C19.1734177,66.7105063 18.2278481,66.6797468 18.2278481,66.1420253 C18.2278481,65.5541772 18.8521519,66.0394937 18.9353165,65.1907595 C19.018481,64.3249367 19.1118987,63.3634177 19.1118987,61.8653165 C19.1118987,61.2455696 19.0708861,60.9243038 18.956962,60.6873418 C18.8521519,60.4697468 18.2586076,60.3979747 18.2586076,59.9741772 C18.2586076,59.3863291 19.226962,59.2405063 20.0597468,59.2405063 C21.2764557,59.2405063 21.2548101,59.4467089 21.5681013,59.9741772 C21.931519,60.5848101 22.5763291,62.2788608 23.0343038,62.3825316 C23.3567089,62.4531646 23.7839241,61.2034177 24.1575949,60.5221519 C24.688481,59.5503797 24.6987342,59.2405063 26.0726582,59.2405063 C26.5294937,59.2405063 27.5707595,59.2712658 27.5707595,59.9229114 C27.5707595,60.3364557 27.1013924,60.418481 26.9988608,60.7705063 C26.914557,61.0587342 26.8416456,62.2788608 26.8416456,62.7436709 C26.8416456,62.8986076 26.9043038,64.0344304 26.9464557,64.9959494 C26.9772152,65.7501266 27.601519,65.5837975 27.601519,66.0486076 C27.601519,66.7424051 26.1763291,66.7105063 25.7194937,66.7105063 C25.2922785,66.7105063 23.8670886,66.7526582 23.8670886,66.0907595 C23.8670886,65.7296203 24.3341772,65.666962 24.4070886,65.3365823 C24.4492405,65.1611392 24.6565823,63.3839241 24.2931646,63.3839241 C23.9707595,63.3839241 23.6381013,64.293038 23.3874684,64.8193671 C23.158481,65.2944304 22.7848101,66.4724051 22.4510127,66.4313924 C22.2846835,66.4108861 22.2026582,66.4313924 21.5783544,65.036962 L20.974557,63.6937975 Z" id="Fill-19" fill="#F9B006"></path>
            <path d="M31.6378481,59.4478481 C33.0322785,59.4478481 33.2293671,59.2405063 33.3956962,59.2405063 C33.9892405,59.2405063 34.2387342,60.2532911 34.2387342,60.7078481 C34.2387342,61.048481 34.1043038,61.4529114 33.6975949,61.4529114 C32.8762025,61.4529114 33.541519,60.4606329 31.5649367,60.4606329 C30.4097468,60.4606329 30.5248101,60.6668354 30.5248101,61.8550633 C30.5248101,62.4543038 30.5555696,62.4748101 31.1901266,62.4748101 C31.9807595,62.4748101 31.3883544,61.3275949 32.1265823,61.3275949 C32.7303797,61.3275949 32.7713924,62.4953165 32.7713924,62.8974684 C32.7713924,63.3212658 32.698481,64.5607595 32.0741772,64.5607595 C31.4293671,64.5607595 32.0741772,63.4773418 31.0237975,63.4773418 C30.5874684,63.4773418 30.5977215,63.8703797 30.5977215,64.2007595 C30.5977215,65.7079747 30.7013924,65.6373418 31.7939241,65.6373418 C33.9265823,65.6373418 33.3227848,64.1791139 34.1772152,64.1791139 C34.5087342,64.1791139 34.6762025,64.5505063 34.6762025,64.8410127 C34.6762025,65.5439241 34.1134177,66.8039241 33.6975949,66.8039241 C33.6246835,66.8039241 33.4583544,66.7731646 33.2396203,66.7412658 C33.0106329,66.7207595 32.7201266,66.6888608 32.3658228,66.6888608 L28.0902532,66.6888608 C27.4032911,66.6888608 27.393038,66.3801266 27.393038,66.2468354 C27.393038,65.6772152 28.1005063,66.1317722 28.1734177,65.036962 C28.2987342,63.1560759 28.3089873,63.3429114 28.2041772,61.4722785 C28.1312658,59.8921519 27.3417722,60.7078481 27.3417722,59.9741772 C27.3417722,59.3441772 28.2144304,59.4478481 28.6416456,59.4478481 L31.6378481,59.4478481 Z" id="Fill-21" fill="#F9B006"></path>
            <path d="M39.5977215,62.464557 C39.5977215,61.1532911 39.4940506,60.8525316 39.3789873,60.7078481 C39.1397468,60.4070886 38.7341772,60.3774684 38.7341772,59.9844304 C38.7341772,59.2405063 40.855443,59.2405063 41.0650633,59.2405063 C41.6882278,59.2405063 42.9687342,59.2610127 42.9687342,59.9650633 C42.9687342,60.3364557 42.5722785,60.3159494 42.3341772,60.5848101 C42.1370886,60.811519 42.1256962,61.7411392 42.1256962,62.464557 L42.1256962,63.4864557 C42.1256962,65.3274684 42.2498734,65.2853165 42.4583544,65.4083544 C42.7181013,65.5644304 42.9687342,65.6156962 42.9687342,65.9358228 C42.9687342,66.2456962 42.8741772,66.7116456 40.5956962,66.7116456 C40.1593671,66.7116456 38.8481013,66.7013924 38.8481013,66.0394937 C38.8481013,65.7091139 39.2024051,65.6567089 39.3687342,65.4607595 C39.4940506,65.3160759 39.5977215,64.9344304 39.5977215,63.4864557 L39.5977215,62.464557 Z" id="Fill-23" fill="#F9B006"></path>
            <path d="M46.0378481,63.6937975 C45.9751899,63.5605063 45.8612658,63.2483544 45.6732911,63.2483544 C45.3508861,63.2483544 45.454557,64.6131646 45.454557,64.9537975 C45.454557,66.0588608 46.1210127,65.5439241 46.1210127,66.1010127 C46.1210127,66.69 45.0079747,66.7105063 44.6012658,66.7105063 C44.2378481,66.7105063 43.2911392,66.6797468 43.2911392,66.1420253 C43.2911392,65.5541772 43.915443,66.0394937 43.9986076,65.1907595 C44.0817722,64.3249367 44.1751899,63.3634177 44.1751899,61.8653165 C44.1751899,61.2455696 44.1341772,60.9243038 44.0202532,60.6873418 C43.915443,60.4697468 43.3218987,60.3979747 43.3218987,59.9741772 C43.3218987,59.3863291 44.2902532,59.2405063 45.123038,59.2405063 C46.3397468,59.2405063 46.3192405,59.4467089 46.6313924,59.9741772 C46.9948101,60.5848101 47.6407595,62.2788608 48.0975949,62.3825316 C48.42,62.4531646 48.8472152,61.2034177 49.2208861,60.5221519 C49.7517722,59.5503797 49.7620253,59.2405063 51.1359494,59.2405063 C51.5927848,59.2405063 52.6340506,59.2712658 52.6340506,59.9229114 C52.6340506,60.3364557 52.1658228,60.418481 52.0621519,60.7705063 C51.9778481,61.0587342 51.9049367,62.2788608 51.9049367,62.7436709 C51.9049367,62.8986076 51.9675949,64.0344304 52.0097468,64.9959494 C52.0405063,65.7501266 52.6648101,65.5837975 52.6648101,66.0486076 C52.6648101,66.7424051 51.2396203,66.7105063 50.7827848,66.7105063 C50.3555696,66.7105063 48.9303797,66.7526582 48.9303797,66.0907595 C48.9303797,65.7296203 49.3986076,65.666962 49.471519,65.3365823 C49.5125316,65.1611392 49.7198734,63.3839241 49.3575949,63.3839241 C49.0340506,63.3839241 48.7013924,64.293038 48.4518987,64.8193671 C48.2217722,65.2944304 47.8481013,66.4724051 47.5143038,66.4313924 C47.3491139,66.4108861 47.2659494,66.4313924 46.6416456,65.036962 L46.0378481,63.6937975 Z" id="Fill-25" fill="#F9B006"></path>
            <path d="M53.3722785,60.9550633 C53.3722785,60.1803797 52.4050633,60.5210127 52.4050633,59.8716456 C52.4050633,59.4581013 52.8618987,59.3646835 53.1843038,59.3646835 C53.4451899,59.3646835 53.6946835,59.3851899 53.9544304,59.3851899 C55.4627848,59.3851899 56.3787342,59.2405063 56.8162025,59.2405063 C58.23,59.2405063 59.5936709,60.0573418 59.5936709,61.6055696 C59.5936709,63.1458228 58.2824051,63.9717722 56.8378481,63.9717722 C56.524557,63.9717722 56.2124051,63.9205063 55.9321519,63.9205063 C55.8068354,63.9205063 55.7658228,63.9717722 55.7658228,64.0856962 L55.7658228,64.6849367 C55.7965823,65.9756962 56.5553165,65.4402532 56.5553165,66.0383544 C56.5553165,66.7093671 55.0572152,66.7401266 54.5889873,66.7401266 C54.1526582,66.7401266 52.6124051,66.7298734 52.6124051,66.0588608 C52.6124051,65.4903797 53.3722785,65.8424051 53.3722785,64.9948101 L53.3722785,60.9550633 Z M56.16,60.4594937 C55.7544304,60.4594937 55.7658228,60.5836709 55.7658228,60.7898734 L55.7658228,62.3392405 C55.7658228,62.5568354 55.6712658,62.7937975 56.2329114,62.7937975 C56.9198734,62.7937975 57.1910127,62.2777215 57.1910127,61.6477215 C57.1910127,60.9960759 56.8572152,60.4594937 56.16,60.4594937 L56.16,60.4594937 Z" id="Fill-27" fill="#F9B006"></path>
            <path d="M61.1703797,61.4608861 C61.1703797,59.8602532 60.3797468,60.5210127 60.3797468,59.8796203 C60.3797468,59.3122785 61.1908861,59.2405063 61.6078481,59.2405063 C61.825443,59.2405063 62.0339241,59.2598734 62.2526582,59.2701266 C62.46,59.2917722 62.6787342,59.3122785 62.8872152,59.3122785 C63.2198734,59.3122785 63.5525316,59.2917722 63.895443,59.2701266 C64.2292405,59.2598734 64.5721519,59.2405063 64.9059494,59.2405063 C66.0805063,59.2405063 67.443038,59.7565823 67.443038,61.1305063 C67.443038,61.7502532 67.1422785,62.3494937 66.5589873,62.6286076 C66.4655696,62.6798734 66.3926582,62.7117722 66.3926582,62.8348101 C66.3926582,62.9908861 66.5282278,63.0318987 66.6524051,63.0831646 C67.3803797,63.3520253 67.7039241,63.8270886 67.8497468,64.9435443 C67.9750633,65.9027848 68.6494937,65.3263291 68.6494937,65.9551899 C68.6494937,66.3482278 68.1721519,66.7617722 66.9964557,66.7617722 C65.3320253,66.7617722 65.1235443,65.8105063 64.8011392,64.4468354 C64.6860759,63.9717722 64.5094937,63.506962 63.9375949,63.506962 C63.7097468,63.506962 63.625443,63.5377215 63.625443,64.1893671 C63.625443,64.4878481 63.6459494,64.9025316 63.6983544,65.1907595 C63.781519,65.6658228 64.3124051,65.5211392 64.3124051,66.0167089 C64.3124051,66.3892405 64.0526582,66.6672152 62.3665823,66.6672152 C61.8664557,66.6672152 60.39,66.6672152 60.39,65.9141772 C60.39,65.3775949 61.1703797,65.7489873 61.1703797,64.4058228 L61.1703797,61.4608861 Z M63.5844304,61.915443 C63.5627848,62.185443 63.5103797,62.4121519 63.8544304,62.4121519 C64.53,62.4121519 64.7487342,62.0396203 64.7487342,61.3993671 C64.7487342,60.8924051 64.624557,60.3763291 64.0207595,60.3763291 C63.6368354,60.3763291 63.6459494,60.6144304 63.625443,60.934557 L63.5844304,61.915443 Z" id="Fill-29" fill="#F9B006"></path>
            <path d="M68.3544304,62.9794937 C68.3544304,60.7898734 70.1122785,59.2405063 72.3805063,59.2405063 C75.2525316,59.2405063 76.3541772,61.7513924 76.3541772,63.0831646 C76.3541772,65.3046835 74.3787342,66.7708861 72.2551899,66.7708861 C70.0610127,66.7708861 68.3544304,65.1805063 68.3544304,62.9794937 M71.9020253,60.7796203 C71.3198734,60.7796203 71.0282278,61.3788608 71.0282278,61.8846835 C71.0282278,62.7641772 71.6525316,65.2329114 72.7758228,65.2329114 C73.4092405,65.2329114 73.6803797,64.6849367 73.6803797,64.1278481 C73.6803797,63.1868354 73.1198734,60.7796203 71.9020253,60.7796203" id="Fill-31" fill="#F9B006"></path>
            <path d="M81.5001266,65.8116554 C81.2813924,66.2354529 81.0729114,66.709377 80.5112658,66.709377 C79.9086076,66.709377 79.7513924,66.3687441 79.5235443,65.8822884 L77.4535443,61.3367187 C77.1413924,60.6657061 77.0468354,60.5415289 76.6412658,60.4800099 C76.4339241,60.4492504 76.3291139,60.2943137 76.3291139,60.077858 C76.3291139,59.2826681 77.9832911,59.2405162 78.5141772,59.2405162 C80.6981013,59.2405162 80.6160759,59.7577314 80.6160759,59.9115289 C80.6160759,60.3045668 80.1159494,60.3250732 80.1159494,60.6041871 C80.1159494,60.821782 80.5226582,61.6272251 80.7710127,62.1649466 C80.8655696,62.3392504 80.9794937,62.7425415 81.208481,62.7527947 C81.5513924,62.773301 81.7291139,62.1957061 81.8532911,61.9781111 C81.9786076,61.7297567 82.4570886,60.8012757 82.4570886,60.5529213 C82.4570886,60.1815289 81.9262025,60.2840605 81.9262025,59.8705162 C81.9262025,59.230263 83.2374684,59.2405162 83.6544304,59.2405162 C84.964557,59.2405162 85.1821519,59.4774782 85.1821519,59.8397567 C85.1821519,60.1188706 84.9748101,60.253301 84.7253165,60.2840605 C84.2775949,60.3353263 84.2365823,60.3045668 83.8401266,61.0997567 L81.5001266,65.8116554 Z" id="Fill-33" fill="#F9B006"></path>
            <path d="M89.7402532,59.4478481 C91.1346835,59.4478481 91.3317722,59.2405063 91.496962,59.2405063 C92.0905063,59.2405063 92.3411392,60.2532911 92.3411392,60.7078481 C92.3411392,61.048481 92.2055696,61.4529114 91.8,61.4529114 C90.9786076,61.4529114 91.6439241,60.4606329 89.6673418,60.4606329 C88.5121519,60.4606329 88.6260759,60.6668354 88.6260759,61.8550633 C88.6260759,62.4543038 88.6579747,62.4748101 89.2925316,62.4748101 C90.0831646,62.4748101 89.4907595,61.3275949 90.2289873,61.3275949 C90.8316456,61.3275949 90.8737975,62.4953165 90.8737975,62.8974684 C90.8737975,63.3212658 90.8008861,64.5607595 90.1765823,64.5607595 C89.5317722,64.5607595 90.1765823,63.4773418 89.1262025,63.4773418 C88.6887342,63.4773418 88.6989873,63.8703797 88.6989873,64.2007595 C88.6989873,65.7079747 88.8037975,65.6373418 89.8963291,65.6373418 C92.0289873,65.6373418 91.4251899,64.1791139 92.278481,64.1791139 C92.6111392,64.1791139 92.7786076,64.5505063 92.7786076,64.8410127 C92.7786076,65.5439241 92.2158228,66.8039241 91.8,66.8039241 C91.7270886,66.8039241 91.5607595,66.7731646 91.3420253,66.7412658 C91.113038,66.7207595 90.8213924,66.6888608 90.4682278,66.6888608 L86.1926582,66.6888608 C85.5056962,66.6888608 85.495443,66.3801266 85.495443,66.2468354 C85.495443,65.6772152 86.2029114,66.1317722 86.2746835,65.036962 C86.4011392,63.1560759 86.4113924,63.3429114 86.3065823,61.4722785 C86.2336709,59.8921519 85.443038,60.7078481 85.443038,59.9741772 C85.443038,59.3441772 86.3168354,59.4478481 86.7440506,59.4478481 L89.7402532,59.4478481 Z" id="Fill-35" fill="#F9B006"></path>
            <path d="M96.1644304,63.6937975 C96.1017722,63.5605063 95.9878481,63.2483544 95.7998734,63.2483544 C95.4774684,63.2483544 95.5822785,64.6131646 95.5822785,64.9537975 C95.5822785,66.0588608 96.2475949,65.5439241 96.2475949,66.1010127 C96.2475949,66.69 95.134557,66.7105063 94.7289873,66.7105063 C94.3644304,66.7105063 93.4177215,66.6797468 93.4177215,66.1420253 C93.4177215,65.5541772 94.0420253,66.0394937 94.1251899,65.1907595 C94.2083544,64.3249367 94.3029114,63.3634177 94.3029114,61.8653165 C94.3029114,61.2455696 94.2607595,60.9243038 94.1468354,60.6873418 C94.0420253,60.4697468 93.4496203,60.3979747 93.4496203,59.9741772 C93.4496203,59.3863291 94.4168354,59.2405063 95.2496203,59.2405063 C96.4663291,59.2405063 96.4458228,59.4467089 96.7579747,59.9741772 C97.1213924,60.5848101 97.7673418,62.2788608 98.2241772,62.3825316 C98.5465823,62.4531646 98.9737975,61.2034177 99.3474684,60.5221519 C99.8794937,59.5503797 99.8897468,59.2405063 101.262532,59.2405063 C101.720506,59.2405063 102.760633,59.2712658 102.760633,59.9229114 C102.760633,60.3364557 102.292405,60.418481 102.188734,60.7705063 C102.10443,61.0587342 102.032658,62.2788608 102.032658,62.7436709 C102.032658,62.8986076 102.095316,64.0344304 102.136329,64.9959494 C102.168228,65.7501266 102.791392,65.5837975 102.791392,66.0486076 C102.791392,66.7424051 101.366203,66.7105063 100.909367,66.7105063 C100.482152,66.7105063 99.056962,66.7526582 99.056962,66.0907595 C99.056962,65.7296203 99.5251899,65.666962 99.5981013,65.3365823 C99.6391139,65.1611392 99.8464557,63.3839241 99.483038,63.3839241 C99.1606329,63.3839241 98.8279747,64.293038 98.578481,64.8193671 C98.3494937,65.2944304 97.9746835,66.4724051 97.6420253,66.4313924 C97.474557,66.4108861 97.3925316,66.4313924 96.7682278,65.036962 L96.1644304,63.6937975 Z" id="Fill-37" fill="#F9B006"></path>
            <path d="M106.828861,59.4478481 C108.223291,59.4478481 108.42038,59.2405063 108.586709,59.2405063 C109.180253,59.2405063 109.429747,60.2532911 109.429747,60.7078481 C109.429747,61.048481 109.294177,61.4529114 108.888608,61.4529114 C108.067215,61.4529114 108.732532,60.4606329 106.755949,60.4606329 C105.600759,60.4606329 105.714684,60.6668354 105.714684,61.8550633 C105.714684,62.4543038 105.746582,62.4748101 106.381139,62.4748101 C107.171772,62.4748101 106.579367,61.3275949 107.317595,61.3275949 C107.920253,61.3275949 107.962405,62.4953165 107.962405,62.8974684 C107.962405,63.3212658 107.889494,64.5607595 107.26519,64.5607595 C106.62038,64.5607595 107.26519,63.4773418 106.21481,63.4773418 C105.778481,63.4773418 105.787595,63.8703797 105.787595,64.2007595 C105.787595,65.7079747 105.892405,65.6373418 106.984937,65.6373418 C109.117595,65.6373418 108.513797,64.1791139 109.367089,64.1791139 C109.699747,64.1791139 109.867215,64.5505063 109.867215,64.8410127 C109.867215,65.5439241 109.30443,66.8039241 108.888608,66.8039241 C108.815696,66.8039241 108.649367,66.7731646 108.430633,66.7412658 C108.201646,66.7207595 107.911139,66.6888608 107.556835,66.6888608 L103.281266,66.6888608 C102.594304,66.6888608 102.584051,66.3801266 102.584051,66.2468354 C102.584051,65.6772152 103.291519,66.1317722 103.363291,65.036962 C103.489747,63.1560759 103.5,63.3429114 103.39519,61.4722785 C103.322278,59.8921519 102.531646,60.7078481 102.531646,59.9741772 C102.531646,59.3441772 103.405443,59.4478481 103.832658,59.4478481 L106.828861,59.4478481 Z" id="Fill-39" fill="#F9B006"></path>
            <path d="M116.072658,61.8445313 C116.196835,61.9470629 116.529494,62.2478224 116.717468,62.2478224 C116.977215,62.2478224 116.987468,61.8228857 116.987468,61.6474427 C116.987468,61.3899743 116.977215,60.9456705 116.894051,60.7075693 C116.749367,60.2735186 116.196835,60.4284553 116.196835,59.8713667 C116.196835,59.209468 117.258608,59.2413667 117.694937,59.2413667 C118.154051,59.2413667 119.287595,59.1889617 119.287595,59.9021262 C119.287595,60.4922528 118.736203,60.2735186 118.558481,60.7485819 C118.424051,61.1211136 118.424051,61.7613667 118.424051,62.1532655 L118.424051,64.8304807 C118.424051,65.2941515 118.48557,66.7102275 117.789494,66.7102275 C117.581013,66.7102275 117.403291,66.5860503 117.248354,66.4527591 L114.033418,63.5898477 C113.888734,63.4565566 113.617595,63.2082022 113.398861,63.2082022 C113.076456,63.2082022 113.066203,63.8792148 113.066203,64.0968098 C113.066203,64.3850376 113.076456,64.7678224 113.139114,65.0366832 C113.294051,65.6974427 113.845443,65.4502275 113.845443,65.9560503 C113.845443,66.6487085 112.774557,66.7102275 112.285823,66.7102275 C111.807342,66.7102275 110.735316,66.6487085 110.735316,65.9765566 C110.735316,65.4285819 111.339114,65.6461769 111.442785,64.9854174 C111.515696,64.5399743 111.537342,63.8906072 111.537342,63.4257971 C111.537342,62.6807338 111.537342,61.9265566 111.422278,61.1826326 C111.25481,60.1493414 110.506329,60.5526326 110.506329,59.9328857 C110.506329,59.1992148 111.911013,59.2413667 112.379241,59.2413667 C113.024051,59.2413667 113.139114,59.2823794 113.606203,59.6959237 L116.072658,61.8445313 Z" id="Fill-41" fill="#F9B006"></path>
            <path d="M124.801519,59.3851899 C125.249241,59.3851899 125.457722,59.3441772 125.612658,59.3134177 C125.758481,59.2701266 125.841646,59.2405063 126.039873,59.2405063 C126.445443,59.2405063 127.288481,60.0356962 127.288481,61.1521519 C127.288481,61.6682278 127.017342,62.01 126.486456,62.01 C125.581899,62.01 125.592152,60.7898734 125.061266,60.7898734 C124.655696,60.7898734 124.697848,61.3481013 124.697848,61.4312658 L124.697848,64.6029114 C124.697848,65.8310127 125.65481,65.2431646 125.65481,65.965443 C125.65481,66.2867089 125.457722,66.7412658 123.511899,66.7412658 C122.981013,66.7412658 121.03519,66.7629114 121.03519,65.965443 C121.03519,65.4186076 121.681139,65.6350633 121.888481,65.2431646 C121.992152,65.0255696 122.034304,64.4058228 122.045696,64.1483544 L122.127722,61.8641772 C122.169873,60.7807595 121.951139,60.7898734 121.805316,60.7898734 C121.337089,60.7898734 121.108101,62.01 120.266203,62.01 C119.859494,62.01 119.620253,61.6374684 119.620253,61.2649367 C119.620253,60.3877215 120.369873,59.2405063 120.962278,59.2405063 C121.03519,59.2405063 121.150253,59.2701266 121.347342,59.3134177 C121.54557,59.3441772 121.825823,59.3851899 122.241646,59.3851899 L124.801519,59.3851899 Z" id="Fill-43" fill="#F9B006"></path>
            <path d="M127.792025,61.6465823 C127.792025,60.5734177 128.832152,59.2405063 130.850886,59.2405063 C131.516203,59.2405063 132.264684,59.5298734 132.421899,59.5298734 C132.566582,59.5298734 132.712405,59.3851899 132.931139,59.3851899 C133.285443,59.3851899 134.074937,60.1803797 134.074937,61.048481 C134.074937,61.3993671 133.847089,61.7502532 133.462025,61.7502532 C132.76481,61.7502532 132.359241,60.5734177 131.276962,60.5734177 C130.954557,60.5734177 130.611646,60.7181013 130.611646,61.0894937 C130.611646,61.9051899 132.036835,61.6875949 133.243291,62.4827848 C133.889241,62.9065823 134.210506,63.4249367 134.210506,64.1996203 C134.210506,65.4083544 133.212532,66.7720253 130.788228,66.7720253 C130.101266,66.7720253 128.92557,66.5965823 128.333165,66.2753165 C127.834177,65.9962025 127.594937,64.9013924 127.594937,64.3750633 C127.594937,64.0948101 127.719114,63.8168354 128.031266,63.8168354 C128.769494,63.8168354 128.645316,65.4596203 130.559241,65.4596203 C130.788228,65.4596203 131.360127,65.3456962 131.360127,64.9526582 C131.360127,64.2098734 129.934937,64.3955696 128.779747,63.4750633 C128.207848,63.0216456 127.792025,62.3905063 127.792025,61.6465823" id="Fill-45" fill="#F9B006"></path>
        </g>
    </g>
</svg>