<?xml version="1.0" encoding="UTF-8"?>
<svg width="300px" height="300px" viewBox="0 0 300 300" version="1.1" xmlns="http://www.w3.org/2000/svg" xmlns:xlink="http://www.w3.org/1999/xlink">
    <!-- Generator: Sketch 51.2 (57519) - http://www.bohemiancoding.com/sketch -->
    <title>instagram</title>
    <desc>Created with Sketch.</desc>
    <defs>
        <linearGradient x1="50%" y1="99.7089109%" x2="50%" y2="0.776721582%" id="linearGradient-1">
            <stop stop-color="#E09B3D" offset="0%"></stop>
            <stop stop-color="#C74C4D" offset="30%"></stop>
            <stop stop-color="#C21975" offset="60%"></stop>
            <stop stop-color="#7024C4" offset="100%"></stop>
        </linearGradient>
        <linearGradient x1="50%" y1="146.096022%" x2="50%" y2="-46.2281999%" id="linearGradient-2">
            <stop stop-color="#E09B3D" offset="0%"></stop>
            <stop stop-color="#C74C4D" offset="30%"></stop>
            <stop stop-color="#C21975" offset="60%"></stop>
            <stop stop-color="#7024C4" offset="100%"></stop>
        </linearGradient>
        <linearGradient x1="50%" y1="654.937317%" x2="50%" y2="-140.96541%" id="linearGradient-3">
            <stop stop-color="#E09B3D" offset="0%"></stop>
            <stop stop-color="#C74C4D" offset="30%"></stop>
            <stop stop-color="#C21975" offset="60%"></stop>
            <stop stop-color="#7024C4" offset="100%"></stop>
        </linearGradient>
    </defs>
    <g id="Page-1" stroke="none" stroke-width="1" fill="none" fill-rule="evenodd">
        <g id="instagram" fill-rule="nonzero" stroke-width="10">
            <path d="M210.259783,3 L89.2152174,3 C41.6785934,3 3,41.6785934 3,89.2152174 L3,210.259783 C3,257.796407 41.6785934,296.475 89.2152174,296.475 L210.259783,296.475 C257.796407,296.475 296.475,257.796407 296.475,210.259783 L296.475,89.2152505 C296.474475,41.6786062 257.795869,3 210.259783,3 Z M272.347826,210.259783 C272.347826,244.549789 244.549789,272.347826 210.259783,272.347826 L89.2152174,272.347826 C54.925211,272.347826 27.1271739,244.549789 27.1271739,210.259783 L27.1271739,89.2152174 C27.1271739,54.9248509 54.9250275,27.1271739 89.2152174,27.1271739 L210.259783,27.1271739 C244.549972,27.1271739 272.347826,54.9248509 272.347826,89.2152174 L272.347826,210.259783 Z" id="Shape" stroke="url(#linearGradient-1)"></path>
            <path d="M149.7375,75.2826087 C108.685739,75.2826087 75.2826087,108.685578 75.2826087,149.736957 C75.2826087,190.788445 108.685849,224.191848 149.7375,224.191848 C190.789341,224.191848 224.192391,190.788798 224.192391,149.736957 C224.192391,108.685225 190.789451,75.2826087 149.7375,75.2826087 Z M149.7375,200.065217 C121.942059,200.065217 99.4097826,177.532941 99.4097826,149.7375 C99.4097826,121.942241 121.94242,99.4097826 149.7375,99.4097826 C177.532941,99.4097826 200.065217,121.942059 200.065217,149.7375 C200.065217,177.532398 177.532398,200.065217 149.7375,200.065217 Z" id="Shape" stroke="url(#linearGradient-2)"></path>
            <circle id="Oval" stroke="url(#linearGradient-3)" cx="227.342391" cy="72.8641304" r="15.5597826"></circle>
        </g>
    </g>
</svg>