<?xml version="1.0" encoding="UTF-8"?>
<svg width="360px" height="300px" viewBox="0 0 360 300" version="1.1" xmlns="http://www.w3.org/2000/svg" xmlns:xlink="http://www.w3.org/1999/xlink">
    <!-- Generator: Sketch 51.2 (57519) - http://www.bohemiancoding.com/sketch -->
    <title>twitter</title>
    <desc>Created with Sketch.</desc>
    <defs></defs>
    <g id="Page-1" stroke="none" stroke-width="1" fill="none" fill-rule="evenodd">
        <g id="twitter" fill-rule="nonzero" stroke="#76A9EA" stroke-width="10">
            <path d="M355.27953,37.987956 L355.279255,37.9880777 C347.123868,41.6044411 338.651304,44.4611814 329.950094,46.5300382 L319.119779,49.1051249 L327.189593,41.4366895 C336.255805,32.8214146 343.009447,22.0861493 346.815264,10.1830087 C347.11098,9.25795624 346.106032,8.45781539 345.270837,8.95304203 C333.178562,16.1256665 320.151479,21.5075307 306.55106,24.949507 C305.537458,25.2060714 304.492814,25.3359649 303.444737,25.3359649 C300.284227,25.3359649 297.221195,24.166167 294.820798,22.0506393 C281.197082,10.0434539 263.675267,3.43070175 245.481579,3.43070175 C237.596965,3.43070175 229.628771,4.66086711 221.796618,7.08990108 C197.658191,14.5767532 179.023992,34.4980488 173.180817,59.0627899 C170.976375,68.3283872 170.380088,77.5887151 171.403679,86.5915869 C171.612367,88.4307483 170.982852,89.9569562 169.962571,91.1029849 C168.846632,92.3541892 167.254029,93.0763158 165.584211,93.0763158 C165.398344,93.0763158 165.210446,93.0673683 165.031247,93.0502937 C109.174852,87.8608694 58.7916513,60.9434337 23.1911976,17.2742557 C22.7256893,16.7030953 21.8323997,16.7730657 21.4611384,17.4098725 C14.8572615,28.7394749 11.3657895,41.7021662 11.3657895,54.8938596 C11.3657895,74.9758185 19.3894397,94.064174 33.5932385,108.047219 L41.2469361,115.581964 L30.7964839,113.10416 C24.3393979,111.573183 18.1114729,109.164243 12.3395624,105.958437 C11.6409434,105.570315 10.7815249,106.069009 10.7717029,106.868474 C10.4068474,136.533394 27.6483316,163.468932 54.3220386,175.654599 L66.1797165,181.071684 L53.1469604,181.382481 C52.5797499,181.396007 52.0047937,181.402632 51.4192982,181.402632 C46.8861434,181.402632 42.3002351,180.965253 37.7882049,180.102901 C37.0011596,179.952618 36.3399192,180.699287 36.5842117,181.462073 C45.1136659,208.091167 68.0574811,227.815667 95.6134276,232.291438 L103.111935,233.509382 L96.8045122,237.74346 C72.5563385,254.020896 44.3236026,262.597368 14.9640294,262.597368 L5.99473684,262.592105 C4.59305292,262.592105 3.44733624,263.475704 3.0898326,264.834485 C2.75603924,266.102984 3.39010579,267.5413 4.63879398,268.267649 C36.6077872,286.872555 73.0741066,296.705263 110.107895,296.705263 C142.560897,296.705263 172.888446,290.271467 200.267098,277.589282 C225.355379,265.967599 247.524159,249.355644 266.167899,228.203998 C283.548074,208.486281 297.139829,185.722563 306.566717,160.538613 C315.550137,136.54043 320.298246,110.934789 320.298246,86.5122807 L320.298246,85.3322402 C320.297168,80.4437918 322.508179,75.8447866 326.346748,72.7288974 C338.030784,63.2423373 348.204601,52.0758217 356.585769,39.5389009 C357.172704,38.660893 356.245804,37.559363 355.27953,37.987956 Z" id="Shape"></path>
        </g>
    </g>
</svg>