<?xml version="1.0" encoding="UTF-8"?>
<svg width="80px" height="80px" viewBox="0 0 80 80" version="1.1" xmlns="http://www.w3.org/2000/svg" xmlns:xlink="http://www.w3.org/1999/xlink">
    <!-- Generator: Sketch 51.2 (57519) - http://www.bohemiancoding.com/sketch -->
    <title>38co_OutlineLogo Copy</title>
    <desc>Created with Sketch.</desc>
    <defs>
        <linearGradient x1="50%" y1="97.9746207%" x2="50%" y2="0%" id="linearGradient-1">
            <stop stop-color="#3CAEDB" offset="0%"></stop>
            <stop stop-color="#22FFF5" offset="51.5466944%"></stop>
            <stop stop-color="#3CAEDB" offset="100%"></stop>
        </linearGradient>
        <linearGradient x1="49.9994725%" y1="132.451469%" x2="50%" y2="-33.6095974%" id="linearGradient-2">
            <stop stop-color="#3CAEDB" offset="0%"></stop>
            <stop stop-color="#22FFF5" offset="51.5466944%"></stop>
            <stop stop-color="#3CAEDB" offset="100%"></stop>
        </linearGradient>
        <linearGradient x1="50.0000179%" y1="240.061484%" x2="50%" y2="-263.359123%" id="linearGradient-3">
            <stop stop-color="#3CAEDB" offset="0%"></stop>
            <stop stop-color="#22FFF5" offset="51.5466944%"></stop>
            <stop stop-color="#3CAEDB" offset="100%"></stop>
        </linearGradient>
        <linearGradient x1="50%" y1="416.795184%" x2="50%" y2="-160.658243%" id="linearGradient-4">
            <stop stop-color="#3CAEDB" offset="0%"></stop>
            <stop stop-color="#22FFF5" offset="51.5466944%"></stop>
            <stop stop-color="#3CAEDB" offset="100%"></stop>
        </linearGradient>
    </defs>
    <g id="Page-1" stroke="none" stroke-width="1" fill="none" fill-rule="evenodd">
        <g id="FacebookHeader" transform="translate(-708.000000, -240.000000)">
            <g id="38co_OutlineLogo-Copy" transform="translate(708.000000, 240.000000)">
                <path d="M40.1132952,0.363272727 C39.4354891,0.363272727 38.7576829,0.620300121 38.2436282,1.13487311 L1.13477992,38.2432031 C0.106152147,39.2718309 0.106152147,40.9549458 1.13477992,41.9835736 L38.2436282,79.0919036 C38.7576829,79.6059584 39.4354891,79.863504 40.1132952,79.863504 C40.7916195,79.863504 41.4694256,79.6059584 41.9834804,79.0919036 L79.0918104,41.9835736 C80.1204382,40.9549458 80.1204382,39.2718309 79.0918104,38.2432031 L41.9834804,1.13487311 C41.4694256,0.620300121 40.7916195,0.363272727 40.1132952,0.363272727 M40.1132952,1.14057331 C40.6143949,1.14057331 41.0833663,1.33386206 41.4336698,1.68416553 L78.542518,38.7930138 C78.8928215,39.1433172 79.0861102,39.6122886 79.0861102,40.1133884 C79.0861102,40.6139699 78.8928215,41.0834595 78.542518,41.433763 L41.4336698,78.5426112 C41.0833663,78.8929147 40.6143949,79.0862034 40.1132952,79.0862034 C39.6127136,79.0862034 39.1437422,78.8929147 38.7929206,78.5426112 L1.68459054,41.433763 C1.33376887,41.0834595 1.14048013,40.6139699 1.14048013,40.1133884 C1.14048013,39.6122886 1.33376887,39.1433172 1.68459054,38.7930138 L38.7929206,1.68416553 C39.1437422,1.33386206 39.6127136,1.14057331 40.1132952,1.14057331" id="Fill-1" fill="url(#linearGradient-1)"></path>
                <path d="M48.8621242,38.8859789 C50.9732726,40.0208378 52.6460235,41.5194733 53.8415118,43.3476843 C55.1587772,45.3722932 55.8262193,47.6414927 55.8262193,50.0941352 C55.8262193,54.078578 54.2887187,57.4302981 51.2567282,60.0555013 C48.2009005,62.7035053 44.4522389,64.0461625 40.1149016,64.0461625 C35.7744551,64.0461625 32.0257935,62.7029871 28.9725568,60.0555013 C25.9431573,57.4344437 24.4051385,54.0884238 24.4015111,50.1101994 C24.4015111,50.1044992 24.4009929,50.0993172 24.4009929,50.0941352 C24.4009929,47.6399381 25.0694714,45.3702204 26.3877732,43.3487207 C27.5796341,41.5215461 29.252385,40.0229106 31.3671608,38.8859789 C29.8384696,37.7910215 28.5699151,36.4690923 27.5905163,34.9486923 C26.4686125,33.2090936 25.9001467,31.3477178 25.9001467,29.416385 C25.9001467,29.4060209 25.9006649,29.3966933 25.9006649,29.3868475 C25.9079197,25.6423315 27.2630137,22.4600629 29.9296729,19.928654 C32.5548761,17.4418103 35.9812171,16.1810288 40.1149016,16.1810288 C44.2465133,16.1810288 47.6718179,17.4418103 50.2970211,19.9281358 C52.9709351,22.4667995 54.3265473,25.6589139 54.3265473,29.416385 C54.3265473,31.3477178 53.7580815,33.2090936 52.6361777,34.9486923 C51.6572971,36.4680559 50.389779,37.7899851 48.8621242,38.8859789 Z M48.9543639,53.2111105 C49.4466542,52.1809282 49.6959086,51.0211957 49.6959086,49.7650779 C49.6959086,47.3383455 48.7491565,45.301818 46.8882989,43.716643 C45.0445419,42.1065943 42.7660148,41.2904287 40.1149016,41.2904287 L40.113347,41.2904287 L40.113347,36.8504878 L40.1149016,36.8504878 C42.4721952,36.8504878 44.4258106,36.150399 45.9208188,34.769395 C47.4308547,33.3769905 48.1967549,31.5332336 48.1967549,29.2883895 C48.1967549,27.0326632 47.4267091,25.2174072 45.9089002,23.8934052 C44.413892,22.5859856 42.4644222,21.9237255 40.1149016,21.9237255 C37.7633082,21.9237255 35.8133201,22.5859856 34.318312,23.892887 C32.7999849,25.2174072 32.0304573,27.032145 32.0304573,29.2883895 C32.0304573,29.3215543 32.0320119,29.3536827 32.0325301,29.3868475 L27.0655793,29.3868475 L26.4831221,29.3868475 C26.4831221,29.3966933 26.4826039,29.4060209 26.4826039,29.416385 C26.4826039,31.2420049 27.0158321,32.98264 28.0802157,34.6331083 C29.1466721,36.2892767 30.547886,37.6796084 32.2890393,38.8103217 L32.2890393,39.0704582 C29.9405551,40.2011715 28.1356631,41.7350447 26.8753998,43.6668957 C25.6120272,45.6039288 24.9834502,47.7425418 24.9834502,50.0941352 C24.9834502,50.0993172 24.9834502,50.1044992 24.9834502,50.1101994 L25.5659074,50.1101994 L30.5395948,50.1101994 C30.5810508,51.234176 30.8261596,52.276277 31.2718119,53.2100741 C31.7563293,54.2288561 32.4393174,55.136225 33.3026392,55.9052344 C34.1628519,56.6716527 35.1811157,57.2701742 36.3310023,57.6852527 C37.4788162,58.0951492 38.7520346,58.3034658 40.1149016,58.3034658 C41.4756958,58.3034658 42.7478778,58.0951492 43.8977644,57.6847345 C45.0455783,57.2701742 46.0638421,56.6716527 46.9245729,55.9052344 C47.7873766,55.136225 48.4703647,54.2288561 48.9543639,53.2111105 Z" id="Combined-Shape" fill="url(#linearGradient-2)"></path>
                <path d="M46.5046752,44.154885 C48.2432375,45.6359017 49.1132959,47.5040142 49.1132959,49.7649225 C49.1132959,50.9381282 48.8852878,52.0045846 48.4287532,52.9601461 C47.9722187,53.9203714 47.3410506,54.7536376 46.5368036,55.4703088 C45.7325566,56.1869799 44.7878773,56.7440453 43.7001746,57.1368412 C42.6145448,57.5244551 41.4175019,57.7208531 40.1147461,57.7208531 C38.8093993,57.7208531 37.6123564,57.5244551 36.5267266,57.1368412 C35.439024,56.7440453 34.4943447,56.1869799 33.6900977,55.4703088 C32.8858507,54.7536376 32.2546826,53.9203714 31.798148,52.9601461 C31.3866969,52.0994152 31.1628344,51.1474811 31.1218965,50.1100439 C31.1172327,49.9960398 31.1136053,49.8815176 31.1136053,49.7649225 C31.1136053,47.5465066 31.9624176,45.6783942 33.6584875,44.154885 C35.4385058,42.6375943 37.590592,41.8727305 40.1131915,41.8727305 L40.1147461,41.8727305 C42.635791,41.8727305 44.766631,42.6370761 46.5046752,44.154885 Z M47.9027798,52.7098553 C48.3199311,51.8372058 48.5308387,50.8464067 48.5308387,49.7649225 C48.5308387,47.6662109 47.7447287,45.9763594 46.1274253,44.5984646 C44.4966486,43.1744499 42.4756671,42.4546695 40.1147461,42.4546695 L40.1131915,42.4546695 C37.7486431,42.4551877 35.7038244,43.1765227 34.0362555,44.5979464 C32.465072,46.0095242 31.6955444,47.7030031 31.6955444,49.7649225 C31.6955444,49.8815176 31.6991718,49.9960398 31.7043538,50.1100439 C31.7447734,51.0578324 31.9515354,51.9310001 32.3236032,52.7088189 C32.7412728,53.588205 33.3309848,54.3706875 34.0777116,55.0355387 C34.8259929,55.7024626 35.7167794,56.2253267 36.7246792,56.5891034 C37.7444975,56.9533983 38.886093,57.1383958 40.1147461,57.1383958 C41.3418447,57.1383958 42.4824037,56.9533983 43.5042949,56.588067 C44.5101219,56.2253267 45.4003901,55.7024626 46.1491897,55.0355387 C46.8959165,54.3706875 47.4856285,53.588205 47.9027798,52.7098553 Z" id="Combined-Shape" fill="url(#linearGradient-3)"></path>
                <path d="M34.7008994,34.341206 C33.3302593,33.0773153 32.636389,31.426847 32.6146246,29.3872103 C32.6141064,29.3540454 32.6125518,29.321917 32.6125518,29.2887522 C32.6125518,27.1978136 33.3079767,25.5473454 34.7008994,24.3316473 C36.0917492,23.1164673 37.896123,22.5060273 40.1150571,22.5060273 C42.3303637,22.5060273 44.1352557,23.1164673 45.5255873,24.3316473 C46.9190282,25.5473454 47.6139349,27.1978136 47.6139349,29.2887522 C47.6139349,31.3745088 46.9190282,33.0571054 45.5255873,34.341206 C44.1352557,35.6258248 42.3303637,36.2678751 40.1150571,36.2678751 L40.1135025,36.2678751 C37.8956048,36.2678751 36.091231,35.6258248 34.7008994,34.341206 Z M35.0843677,24.7700448 C33.8127039,25.8795118 33.195009,27.3569011 33.195009,29.2887522 C33.195009,29.321917 33.1965636,29.3540454 33.1970818,29.3872103 C33.2178098,31.2724233 33.8386139,32.7544764 35.0957681,33.9131725 C36.3689864,35.0889692 38.0567651,35.6854178 40.1135025,35.6854178 L40.1150571,35.6854178 C42.1697216,35.6854178 43.8575003,35.0894874 45.1307186,33.9136907 C46.4101554,32.7342666 47.0319959,31.2216397 47.0319959,29.2887522 C47.0319959,27.3574193 46.4137828,25.8795118 45.1426372,24.770563 C43.8657915,23.6543593 42.1743854,23.0879663 40.1150571,23.0879663 C38.0536559,23.0879663 36.3612134,23.6543593 35.0843677,24.7700448 Z" id="Combined-Shape" fill="url(#linearGradient-4)"></path>
            </g>
        </g>
    </g>
</svg>