<?xml version="1.0" encoding="UTF-8"?>
<svg width="95px" height="95px" viewBox="0 0 95 95" version="1.1" xmlns="http://www.w3.org/2000/svg" xmlns:xlink="http://www.w3.org/1999/xlink">
    <!-- Generator: Sketch 51.2 (57519) - http://www.bohemiancoding.com/sketch -->
    <title>BlockLogoWhite</title>
    <desc>Created with Sketch.</desc>
    <defs>
        <polygon id="path-1" points="0 94.9999 0 0.084 94.9163 0.084 94.9163 94.9999 -4.33071005e-15 94.9999"></polygon>
    </defs>
    <g id="Page-1" stroke="none" stroke-width="1" fill="none" fill-rule="evenodd">
        <g id="BlockLogoWhite">
            <path d="M56.851,62.0523 C57.367,60.9733 57.624,59.7683 57.624,58.4443 C57.624,55.8903 56.641,53.7803 54.678,52.1073 C52.714,50.3923 50.308,49.5293 47.46,49.5293 L47.458,49.5293 C44.608,49.5303 42.178,50.3933 40.167,52.1073 C38.251,53.8273 37.292,55.9383 37.292,58.4443 C37.292,58.5743 37.297,58.7043 37.302,58.8333 C37.348,60.0053 37.601,61.0803 38.066,62.0523 C38.581,63.1373 39.295,64.0783 40.203,64.8883 C41.111,65.6983 42.178,66.3263 43.407,66.7713 C44.633,67.2083 45.985,67.4303 47.46,67.4303 C48.932,67.4303 50.283,67.2083 51.509,66.7713 C52.738,66.3263 53.806,65.6983 54.714,64.8883 C55.622,64.0783 56.335,63.1373 56.851,62.0523 Z M41.345,29.7153 C39.771,31.0883 38.986,32.9523 38.986,35.3153 C38.986,35.3523 38.988,35.3893 38.988,35.4263 C39.013,37.7303 39.796,39.5943 41.345,41.0223 C42.915,42.4733 44.953,43.1983 47.458,43.1983 L47.46,43.1983 C49.963,43.1983 52.001,42.4733 53.572,41.0223 C55.145,39.5723 55.931,37.6713 55.931,35.3153 C55.931,32.9523 55.145,31.0883 53.572,29.7153 C52.001,28.3433 49.963,27.6543 47.46,27.6543 C44.954,27.6543 42.915,28.3433 41.345,29.7153 Z M55.11,51.6123 C57.213,53.4033 58.282,55.7023 58.282,58.4443 C58.282,59.8633 58,61.1723 57.444,62.3363 C56.898,63.4863 56.126,64.5103 55.151,65.3793 C54.18,66.2443 53.029,66.9213 51.732,67.3893 C50.434,67.8533 48.997,68.0873 47.46,68.0873 C45.921,68.0873 44.482,67.8533 43.186,67.3903 C41.887,66.9213 40.737,66.2443 39.765,65.3793 C38.79,64.5103 38.018,63.4863 37.472,62.3343 C36.968,61.2813 36.691,60.1033 36.644,58.8333 L31.026,58.8333 L30.369,58.8333 C30.369,58.8273 30.368,58.8223 30.368,58.8153 C30.368,56.1593 31.079,53.7433 32.505,51.5553 C33.929,49.3733 35.967,47.6413 38.62,46.3643 L38.62,46.0703 C36.654,44.7933 35.071,43.2223 33.866,41.3523 C32.664,39.4883 32.062,37.5213 32.062,35.4583 L32.062,35.4263 L32.72,35.4263 L38.33,35.4263 C38.33,35.3893 38.328,35.3523 38.328,35.3153 C38.328,32.7663 39.198,30.7163 40.913,29.2203 C42.601,27.7443 44.804,26.9953 47.46,26.9953 C50.114,26.9953 52.316,27.7443 54.005,29.2213 C55.719,30.7163 56.588,32.7673 56.588,35.3153 C56.588,37.8503 55.724,39.9333 54.018,41.5053 C52.329,43.0653 50.123,43.8563 47.46,43.8563 L47.458,43.8563 L47.458,48.8713 L47.46,48.8713 C50.454,48.8713 53.028,49.7933 55.11,51.6123 Z" id="Fill-1" fill="#FFFFFF"></path>
            <path d="M41.7909,40.5386 C43.2289,41.8666 45.1359,42.5406 47.4579,42.5406 L47.4599,42.5406 C49.7809,42.5406 51.6869,41.8666 53.1249,40.5386 C54.5709,39.2066 55.2729,37.4976 55.2729,35.3146 C55.2729,33.1336 54.5749,31.4646 53.1389,30.2116 C51.6969,28.9506 49.7859,28.3106 47.4599,28.3106 C45.1319,28.3106 43.2199,28.9506 41.7779,30.2116 C40.3419,31.4646 39.6439,33.1336 39.6439,35.3146 C39.6439,35.3516 39.6449,35.3896 39.6459,35.4266 C39.6699,37.5556 40.3709,39.2296 41.7909,40.5386" id="Fill-3" fill="#FFFFFF"></path>
            <path d="M54.2509,52.6079 C52.4099,50.9999 50.1259,50.1869 47.4599,50.1869 L47.4589,50.1869 C44.7869,50.1869 42.4779,51.0019 40.5939,52.6079 C38.8189,54.2019 37.9499,56.1149 37.9499,58.4439 C37.9499,58.5749 37.9539,58.7049 37.9599,58.8339 C38.0049,59.9039 38.2389,60.8899 38.6589,61.7689 C39.1309,62.7619 39.7969,63.6459 40.6409,64.3969 C41.4859,65.1509 42.4919,65.7409 43.6299,66.1519 C44.7829,66.5629 46.0719,66.7719 47.4599,66.7719 C48.8459,66.7719 50.1339,66.5629 51.2879,66.1509 C52.4239,65.7409 53.4299,65.1509 54.2759,64.3969 C55.1189,63.6459 55.7859,62.7619 56.2569,61.7699 C56.7279,60.7839 56.9659,59.6659 56.9659,58.4439 C56.9659,56.0729 56.0779,54.1649 54.2509,52.6079" id="Fill-5" fill="#FFFFFF"></path>
            <mask id="mask-2" fill="white">
                <use xlink:href="#path-1"></use>
            </mask>
            <g id="Clip-8"></g>
            <path d="M60.0453,70.0679 C56.5933,73.0579 52.3583,74.5749 47.4603,74.5749 C42.5573,74.5749 38.3233,73.0579 34.8743,70.0669 C31.4523,67.1069 29.7153,63.3269 29.7113,58.8339 C29.7113,58.8279 29.7103,58.8219 29.7103,58.8149 C29.7103,56.0439 30.4653,53.4799 31.9543,51.1959 C33.3013,49.1319 35.1913,47.4389 37.5793,46.1559 C35.8523,44.9189 34.4193,43.4249 33.3133,41.7079 C32.0463,39.7439 31.4033,37.6409 31.4033,35.4589 C31.4033,35.4479 31.4043,35.4369 31.4043,35.4259 C31.4123,31.1969 32.9423,27.6019 35.9553,24.7429 C38.9203,21.9329 42.7913,20.5089 47.4603,20.5089 C52.1263,20.5089 55.9963,21.9329 58.9613,24.7429 C61.9813,27.6089 63.5123,31.2139 63.5123,35.4589 C63.5123,37.6399 62.8703,39.7429 61.6033,41.7089 C60.4973,43.4239 59.0663,44.9179 57.3403,46.1559 C59.7243,47.4379 61.6143,49.1309 62.9643,51.1949 C64.4523,53.4819 65.2063,56.0459 65.2063,58.8149 C65.2063,63.3159 63.4693,67.1019 60.0453,70.0679 M93.9953,45.3089 L49.6913,1.0049 C48.4623,-0.2231 46.4533,-0.2231 45.2253,1.0049 L0.9203,45.3089 C-0.3077,46.5369 -0.3077,48.5469 0.9203,49.7749 L45.2253,94.0789 C46.4533,95.3069 48.4623,95.3069 49.6913,94.0789 L93.9953,49.7749 C95.2233,48.5469 95.2233,46.5369 93.9953,45.3089" id="Fill-7" fill="#FFFFFF" mask="url(#mask-2)"></path>
        </g>
    </g>
</svg>